<?xml version="1.0" encoding="UTF-8" standalone="no"?>
<!-- Created with Skedio (http://skedio.shturmsoft.com/) -->

<svg
   xmlns:dc="http://purl.org/dc/elements/1.1/"
   xmlns:cc="http://creativecommons.org/ns#"
   xmlns:rdf="http://www.w3.org/1999/02/22-rdf-syntax-ns#"
   xmlns:svg="http://www.w3.org/2000/svg"
   xmlns="http://www.w3.org/2000/svg"
   xmlns:sodipodi="http://sodipodi.sourceforge.net/DTD/sodipodi-0.dtd"
   xmlns:inkscape="http://www.inkscape.org/namespaces/inkscape"
   version="1.1"
   width="438.32144pt"
   height="203.04561pt"
   viewBox="0 0 438.32144 203.04561"
   id="svg1443"
   sodipodi:docname="server_ui.svg"
   inkscape:version="0.92.5 (2060ec1f9f, 2020-04-08)">
  <metadata
     id="metadata1449">
    <rdf:RDF>
      <cc:Work
         rdf:about="">
        <dc:format>image/svg+xml</dc:format>
        <dc:type
           rdf:resource="http://purl.org/dc/dcmitype/StillImage" />
        <dc:title></dc:title>
      </cc:Work>
    </rdf:RDF>
  </metadata>
  <defs
     id="defs1447" />
  <sodipodi:namedview
     pagecolor="#ffffff"
     bordercolor="#666666"
     borderopacity="1"
     objecttolerance="10"
     gridtolerance="10"
     guidetolerance="10"
     inkscape:pageopacity="0"
     inkscape:pageshadow="2"
     inkscape:window-width="1860"
     inkscape:window-height="1016"
     id="namedview1445"
     showgrid="false"
     fit-margin-top="5"
     fit-margin-left="5"
     fit-margin-right="5"
     fit-margin-bottom="5"
     inkscape:zoom="1.0466418"
     inkscape:cx="321.34626"
     inkscape:cy="141.98708"
     inkscape:window-x="60"
     inkscape:window-y="27"
     inkscape:window-maximized="1"
     inkscape:current-layer="svg1443" />
  <g
     id="g1730"
     transform="translate(-25.669424,-18.472062)">
    <path
       style="fill:none;stroke:#000000;stroke-width:2;stroke-linecap:round;stroke-linejoin:round"
       d="m 91.591,27.84 c -3.205881,-1.035847 -7.157445,-0.842195 -9.423568,1.944578 0.196949,2.903422 4.285798,3.802214 6.224951,5.673732 4.471803,2.4713 -1.595921,4.523951 -3.998089,4.780395 C 81.564803,41.167146 80.958383,39.857966 81.841,37.292"
       id="path1152"
       inkscape:connector-curvature="0" />
    <path
       style="fill:none;stroke:#000000;stroke-width:2;stroke-linecap:round;stroke-linejoin:round"
       d="m 98.403,29.756 c 0.374232,2.666763 -1.124164,6.402154 1.66738,8.1195 2.00911,1.284696 3.58302,-0.881048 5.14462,-1.8185"
       id="path1154"
       inkscape:connector-curvature="0" />
    <path
       style="fill:none;stroke:#000000;stroke-width:2;stroke-linecap:round;stroke-linejoin:round"
       d="m 97.211,30.182 c 2.170992,-1.327258 6.15433,-2.060487 8.856,-1.235"
       id="path1156"
       inkscape:connector-curvature="0" />
    <path
       style="fill:none;stroke:#000000;stroke-width:2;stroke-linecap:round;stroke-linejoin:round"
       d="m 98.105,34.312 c 2.49517,-0.375129 4.94103,-1.013179 7.408,-1.533"
       id="path1158"
       inkscape:connector-curvature="0" />
    <path
       style="fill:none;stroke:#000000;stroke-width:2;stroke-linecap:round;stroke-linejoin:round"
       d="m 111.091,31.289 c 0.059,1.787133 -0.30376,5.603197 0.0273,6.216711 0.41407,-3.208622 0.0184,-6.717557 1.5252,-9.661818 2.35709,-3.636187 5.38946,3.193591 2.78118,4.614425 -1.82526,0.791013 -3.7386,2.929703 -0.6188,3.443215 2.50148,0.854468 5.12421,1.23555 7.73808,0.709467"
       id="path1160"
       inkscape:connector-curvature="0" />
    <path
       style="fill:none;stroke:#000000;stroke-width:2;stroke-linecap:round;stroke-linejoin:round"
       d="m 124.8,27.925 c 0.39439,2.628049 1.16953,6.286313 3.93508,7.706227 2.06354,-1.697528 1.65538,-5.364674 1.98203,-7.931836 0.1075,-0.441912 0.26645,-0.868606 0.38489,-1.307391"
       id="path1162"
       inkscape:connector-curvature="0" />
    <path
       style="fill:none;stroke:#000000;stroke-width:2;stroke-linecap:round;stroke-linejoin:round"
       d="m 135.785,27.201 c -0.0345,3.053835 -0.59705,6.782196 2.25451,8.849541 2.26481,1.595089 5.18957,1.627508 6.26049,-1.313541"
       id="path1164"
       inkscape:connector-curvature="0" />
    <path
       style="fill:none;stroke:#000000;stroke-width:2;stroke-linecap:round;stroke-linejoin:round"
       d="m 137.105,27.84 c 3.00245,-0.207994 6.01861,-1.19764 9.026,-0.851 l 0.21475,0.29125 0.12625,0.34675"
       id="path1166"
       inkscape:connector-curvature="0" />
    <path
       style="fill:none;stroke:#000000;stroke-width:2;stroke-linecap:round;stroke-linejoin:round"
       d="m 135.913,32.609 c 3.81728,-1.266633 7.97444,-1.319042 11.964,-1.618"
       id="path1168"
       inkscape:connector-curvature="0" />
    <path
       style="fill:none;stroke:#000000;stroke-width:2;stroke-linecap:round;stroke-linejoin:round"
       d="m 152.943,28.777 c -0.0633,2.446236 0.50513,6.252707 0.0613,7.918459 -0.57916,-2.937134 -2.2142,-6.657232 0.0974,-9.20607 2.08226,-2.726381 7.07937,0.47727 4.89969,3.295132 -2.0066,1.800747 -2.9992,5.332535 0.90017,4.968479 2.72503,0.15392 5.39515,0.639966 8.09238,1.028"
       id="path1170"
       inkscape:connector-curvature="0" />
  </g>
  <g
     id="g1688"
     transform="matrix(1.1370045,0,0,1.0914059,-68.728658,-43.159272)">
    <path
       inkscape:connector-curvature="0"
       id="path1172"
       d="m 290.714,68.124 c 2.19086,47.64348 -7.40332,94.91064 -5.918,142.54198"
       style="fill:none;stroke:#000000;stroke-width:2;stroke-linecap:round;stroke-linejoin:round" />
    <path
       inkscape:connector-curvature="0"
       id="path1174"
       d="m 291.608,66.847 c 46.55075,-0.85186 93.11228,-1.211108 139.651,-2.64"
       style="fill:none;stroke:#000000;stroke-width:2;stroke-linecap:round;stroke-linejoin:round" />
    <path
       inkscape:connector-curvature="0"
       id="path1176"
       d="m 431.259,64.207 c -0.16662,52.02546 2.0223,104.84953 -10.6255,155.783"
       style="fill:none;stroke:#000000;stroke-width:2;stroke-linecap:round;stroke-linejoin:round" />
    <path
       inkscape:connector-curvature="0"
       id="path1178"
       d="m 284.796,210.66598 c 51.60679,6.78758 104.27241,7.78443 155.74502,-0.72446"
       style="fill:none;stroke:#000000;stroke-width:2;stroke-linecap:round;stroke-linejoin:round" />
  </g>
  <g
     id="g1754"
     transform="translate(-19.984616,-19.643316)">
    <path
       style="fill:none;stroke:#000000;stroke-width:2;stroke-linecap:round;stroke-linejoin:round"
       d="m 284.957,30.532 c -1.70463,-4.50711 -1.42656,5.722351 1.13145,6.989805 5.07166,6.794581 10.84956,-3.351535 9.29955,-8.436805 -0.18354,-1.217137 -2.41949,-4.591652 -2.129,-1.363"
       id="path1180"
       inkscape:connector-curvature="0" />
    <path
       style="fill:none;stroke:#000000;stroke-width:2;stroke-linecap:round;stroke-linejoin:round"
       d="m 303.861,27.254 c -4.81746,-1.188195 -8.99944,3.732843 -2.94072,5.77241 3.75611,1.22592 7.33958,6.121142 1.28582,7.048078 -4.70497,1.637089 -3.27545,-3.794852 -0.3891,-4.688488"
       id="path1182"
       inkscape:connector-curvature="0" />
    <path
       style="fill:none;stroke:#000000;stroke-width:2;stroke-linecap:round;stroke-linejoin:round"
       d="m 309.438,31.895 c -1.89958,6.088254 5.45708,10.263747 9.069,4.555"
       id="path1184"
       inkscape:connector-curvature="0" />
    <path
       style="fill:none;stroke:#000000;stroke-width:2;stroke-linecap:round;stroke-linejoin:round"
       d="m 309.225,29.809 c -0.34668,-2.672364 6.99687,-3.988286 8.899,-2.768"
       id="path1186"
       inkscape:connector-curvature="0" />
    <path
       style="fill:none;stroke:#000000;stroke-width:2;stroke-linecap:round;stroke-linejoin:round"
       d="m 309.822,32.533 c 1.61447,2.147489 4.51026,-0.470518 6.514,-0.681"
       id="path1188"
       inkscape:connector-curvature="0" />
    <path
       style="fill:none;stroke:#000000;stroke-width:2;stroke-linecap:round;stroke-linejoin:round"
       d="m 322.126,31.426 c 0.361,2.253955 1.0084,8.339646 1.2072,8.177562 -1.21091,-3.302131 0.27729,-10.605884 4.09555,-10.202437 1.16247,3.459122 -5.82511,10.790816 2.02443,9.69333 2.40637,0.06515 4.75903,-0.386861 7.14882,-0.515455"
       id="path1190"
       inkscape:connector-curvature="0" />
    <path
       style="fill:none;stroke:#000000;stroke-width:2;stroke-linecap:round;stroke-linejoin:round"
       d="m 348.907,30.788 c 0.12912,-1.117502 0.78926,6.951079 1.66,8.259"
       id="path1192"
       inkscape:connector-curvature="0" />
    <path
       style="fill:none;stroke:#000000;stroke-width:2;stroke-linecap:round;stroke-linejoin:round"
       d="m 354.655,30.532 c -1.08664,2.466469 0.37632,8.662768 -0.11979,10.083379 -0.42321,-2.322202 -2.86226,-13.652499 1.04429,-7.794004 1.30853,4.209749 9.20479,7.503065 6.9945,0.520625 -0.14271,-1.400769 -3.21112,-3.187244 0.128,-3.108"
       id="path1194"
       inkscape:connector-curvature="0" />
    <path
       style="fill:none;stroke:#000000;stroke-width:2;stroke-linecap:round;stroke-linejoin:round"
       d="m 368.535,29.553 c 0.30845,1.218715 -1.0779,9.196301 0.638,7.323"
       id="path1196"
       inkscape:connector-curvature="0" />
    <path
       style="fill:none;stroke:#000000;stroke-width:2;stroke-linecap:round;stroke-linejoin:round"
       d="m 363.894,29.638 c 3.13897,-2.75522 12.75426,-1.842889 10.41806,4.999607 -0.69674,4.511319 4.97599,5.135815 7.42094,2.493393"
       id="path1198"
       inkscape:connector-curvature="0" />
    <path
       style="fill:none;stroke:#000000;stroke-width:2;stroke-linecap:round;stroke-linejoin:round"
       d="m 374.027,28.872 c 1.74423,-1.277792 5.12761,-1.426619 7.408,-1.575"
       id="path1200"
       inkscape:connector-curvature="0" />
    <path
       style="fill:none;stroke:#000000;stroke-width:2;stroke-linecap:round;stroke-linejoin:round"
       d="m 373.218,32.32 c 1.73086,0.857306 4.1665,-0.09554 6.003,-0.596"
       id="path1202"
       inkscape:connector-curvature="0" />
    <path
       style="fill:none;stroke:#000000;stroke-width:2;stroke-linecap:round;stroke-linejoin:round"
       d="m 384.245,30.149 c 0.1992,2.86684 0.85332,11.852884 -0.40003,4.369344 -2.47885,-3.827526 5.32707,-10.704777 4.85778,-4.469407 -3.34073,2.69947 -4.00526,7.462193 1.49731,6.791831 1.90902,0.261361 3.65995,-0.658962 5.45594,-1.114768"
       id="path1204"
       inkscape:connector-curvature="0" />
    <path
       style="fill:none;stroke:#000000;stroke-width:2;stroke-linecap:round;stroke-linejoin:round"
       d="m 398.21,28.957 c -0.0666,2.840332 -0.26537,6.472327 1.192,9.069"
       id="path1206"
       inkscape:connector-curvature="0" />
    <path
       style="fill:none;stroke:#000000;stroke-width:2;stroke-linecap:round;stroke-linejoin:round"
       d="m 397.742,27.041 c 1.58518,-0.715767 13.44675,-1.57529 7.11,2.214"
       id="path1208"
       inkscape:connector-curvature="0" />
    <path
       style="fill:none;stroke:#000000;stroke-width:2;stroke-linecap:round;stroke-linejoin:round"
       d="m 398.636,32.235 c 2.68008,0.210505 5.55354,-0.130152 8.303,-0.213"
       id="path1210"
       inkscape:connector-curvature="0" />
    <path
       style="fill:none;stroke:#000000;stroke-width:2;stroke-linecap:round;stroke-linejoin:round"
       d="m 406.768,37.217 c 0.46897,-3.201923 1.66286,-9.429195 4.57264,-10.356064 2.12604,3.705203 1.51031,8.689643 4.53936,11.888064"
       id="path1212"
       inkscape:connector-curvature="0" />
    <path
       style="fill:none;stroke:#000000;stroke-width:2;stroke-linecap:round;stroke-linejoin:round"
       d="m 408.131,34.109 c 1.32378,-1.281348 4.80647,-0.918875 6.854,-1.448"
       id="path1214"
       inkscape:connector-curvature="0" />
    <path
       style="fill:none;stroke:#000000;stroke-width:2;stroke-linecap:round;stroke-linejoin:round"
       d="m 427.375,30.575 c -2.67721,-8.776543 -10.1133,5.31732 -2.53186,6.742873 2.50047,1.231613 5.20547,0.926811 7.59886,-0.398873"
       id="path1216"
       inkscape:connector-curvature="0" />
    <path
       style="fill:none;stroke:#000000;stroke-width:2;stroke-linecap:round;stroke-linejoin:round"
       d="m 436.785,28.787 c -5.59511,2.002153 1.99808,11.786635 6.386,6.386"
       id="path1218"
       inkscape:connector-curvature="0" />
    <path
       style="fill:none;stroke:#000000;stroke-width:2;stroke-linecap:round;stroke-linejoin:round"
       d="m 437.466,26.871 c -1.32973,-2.052252 4.3253,-0.959567 4.939,-0.681"
       id="path1220"
       inkscape:connector-curvature="0" />
    <path
       style="fill:none;stroke:#000000;stroke-width:2;stroke-linecap:round;stroke-linejoin:round"
       d="m 437.253,29.936 c 0.9367,0.879899 3.1803,0.116796 4.428,-0.298"
       id="path1222"
       inkscape:connector-curvature="0" />
  </g>
  <path
     style="fill:none;stroke:#000000;stroke-width:2;stroke-linecap:round;stroke-linejoin:round"
     inkscape:connector-curvature="0"
     id="path1224"
     d="m 280.02908,41.400892 c 0.343,-0.609 0.353,-1.548 1.029,-1.827 1.344,-0.555 4.318,1.801 7.979,2.247 7.616,0.927 27.891,-1.177 35.845,-1.155 3.97,0.011 5.95,0.224 8.925,0.336" />
  <path
     style="fill:none;stroke:#000000;stroke-width:2;stroke-linecap:round;stroke-linejoin:round"
     inkscape:connector-curvature="0"
     id="path1226"
     d="m 279.10508,63.469892 c -0.252,-0.889 -0.999,-1.87 -0.756,-2.667 0.282,-0.921 1.304,-1.74 2.835,-2.394 3.644,-1.556 14.966,-2.539 20.894,-2.225 4.457,0.236 8.092,2.457 11.612,2.498 2.923,0.035 5.733,-1.587 8.043,-1.533 1.763,0.042 3.042,0.711 4.64,1.113 1.719,0.433 3.556,0.938 5.334,1.407" />
  <path
     style="fill:none;stroke:#000000;stroke-width:2;stroke-linecap:round;stroke-linejoin:round"
     inkscape:connector-curvature="0"
     id="path1228"
     d="m 285.67808,79.869892 c -0.098,-0.161 -0.349,-0.332 -0.294,-0.483 0.115,-0.322 1.201,-0.594 2.394,-0.84 3.162,-0.653 12.552,-1.325 17.807,-1.239 4.183,0.068 7.757,1.526 11.255,1.155 3.185,-0.339 5.95,-1.932 8.924,-2.898" />
  <path
     style="fill:none;stroke:#000000;stroke-width:2;stroke-linecap:round;stroke-linejoin:round"
     inkscape:connector-curvature="0"
     id="path1230"
     d="m 333.97508,62.104892 c 0.406,-0.637 0.288,-1.363 1.218,-1.911 3.752,-2.212 24.569,-1.526 36.853,-2.289" />
  <path
     style="fill:none;stroke:#000000;stroke-width:2;stroke-linecap:round;stroke-linejoin:round"
     inkscape:connector-curvature="0"
     id="path1232"
     d="m 377.80008,58.009892 c 4.297,0.665 8.595,1.33 12.893,1.995" />
  <path
     style="fill:none;stroke:#000000;stroke-width:2;stroke-linecap:round;stroke-linejoin:round"
     inkscape:connector-curvature="0"
     id="path1234"
     d="m 336.51608,77.790892 c -0.028,-0.301 -0.249,-0.659 -0.084,-0.903 0.279,-0.415 1.345,-0.667 2.499,-0.756 2.46,-0.189 7.787,1.648 11.759,1.659 4.075,0.011 8.614,-1.712 12.389,-1.68 3.186,0.027 5.877,1.296 8.799,1.344 2.887,0.047 6.445,-0.602 8.63,-1.029 1.371,-0.268 2.198,-0.602 3.297,-0.903" />
  <path
     style="fill:none;stroke:#000000;stroke-width:2;stroke-linecap:round;stroke-linejoin:round"
     inkscape:connector-curvature="0"
     id="path1236"
     d="m 279.88808,95.327892 c -0.129,-0.629 -0.327,-1.896 -0.386,-1.889 -0.107,0.014 0.277,6.314 0.365,6.316 0.032,0.001 0.055,-0.514 0.082,-0.771" />
  <path
     style="fill:none;stroke:#000000;stroke-width:2;stroke-linecap:round;stroke-linejoin:round"
     inkscape:connector-curvature="0"
     id="path1238"
     d="m 279.98908,94.149892 c 0,-0.013 -0.012,-0.026 0,-0.04 0.13,-0.149 3.601,-1.319 4.529,-0.589 1.154,0.906 0.932,6.165 0.772,7.005998 -0.038,0.198 -0.074,0.269 -0.183,0.345 -0.145,0.103 -0.46,0.068 -0.69,0.102" />
  <path
     style="fill:none;stroke:#000000;stroke-width:2;stroke-linecap:round;stroke-linejoin:round"
     inkscape:connector-curvature="0"
     id="path1240"
     d="m 279.25808,101.86789 c 0,-0.041 -0.025,-0.088 0,-0.122 0.046,-0.063 0.195,-0.077 0.386,-0.122 0.51,-0.12 2.006,-0.343 2.864,-0.447 0.693,-0.084 1.238,-0.086 1.888,-0.162 0.701,-0.083 1.449,-0.217 2.173,-0.325" />
  <path
     style="fill:none;stroke:#000000;stroke-width:2;stroke-linecap:round;stroke-linejoin:round"
     d="m 297.86108,92.301892 c -0.37194,0.22611 -0.28559,0.80559 -0.41181,1.19065 -0.38325,2.29611 -0.65202,4.61013 -0.93091,6.920278 -0.008,0.44321 -0.0343,0.96455 -0.0196,1.35951 0.13455,-2.197148 0.10676,-4.414978 0.49119,-6.589328 0.16362,-0.8998 0.66944,-1.71446 1.29203,-2.37038 0.30017,-0.37229 0.89941,-0.49982 1.19631,-0.0433 0.76302,0.91355 1.17809,2.05514 1.62337,3.14407 0.59027,1.49963 0.98697,3.08947 1.07192,4.701768 0.085,0.35022 -0.2458,1.22894 -0.59548,0.54168"
     id="path1242"
     inkscape:connector-curvature="0" />
  <path
     style="fill:none;stroke:#000000;stroke-width:2;stroke-linecap:round;stroke-linejoin:round"
     inkscape:connector-curvature="0"
     id="path1244"
     d="m 298.04408,97.724892 c 0,-0.028 -0.022,-0.056 0,-0.082 0.098,-0.116 0.984,-0.186 1.605,-0.284 0.853,-0.135 2.031,-0.284 3.046,-0.426" />
  <path
     style="fill:none;stroke:#000000;stroke-width:2;stroke-linecap:round;stroke-linejoin:round"
     inkscape:connector-curvature="0"
     id="path1246"
     d="m 309.39708,97.155892 c -0.088,-0.332 0.003,-0.805 -0.264,-0.995 -0.436,-0.311 -2.091,-0.291 -2.742,0.203 -0.738,0.561 -1.469,2.607 -1.198,3.331 0.204,0.542998 1.14,1.104998 1.747,0.973998 0.985,-0.212 2.098,-2.828998 3.148,-4.243998" />
  <path
     style="fill:none;stroke:#000000;stroke-width:2;stroke-linecap:round;stroke-linejoin:round"
     inkscape:connector-curvature="0"
     id="path1248"
     d="m 310.00608,92.748892 c -0.02,-0.102 -0.047,-0.306 -0.061,-0.305 -0.061,0.007 -0.354,4.623 0.183,6.052 0.358,0.952 1.138,1.381 1.706,2.071998" />
  <path
     style="fill:none;stroke:#000000;stroke-width:2;stroke-linecap:round;stroke-linejoin:round"
     inkscape:connector-curvature="0"
     id="path1250"
     d="m 315.32708,98.414892 c -0.182,-0.738 -0.209,-2.148 -0.548,-2.214 -0.399,-0.077 -1.838,1.822 -1.848,2.559 -0.008,0.552 0.625,1.436998 0.995,1.462998 0.385,0.026 0.853,-0.947998 1.28,-1.421998" />
  <path
     style="fill:none;stroke:#000000;stroke-width:2;stroke-linecap:round;stroke-linejoin:round"
     inkscape:connector-curvature="0"
     id="path1252"
     d="m 316.83008,92.626892 c -0.02,0.014 -0.044,0.006 -0.061,0.041 -0.167,0.353 0.551,6.304 0.752,7.675998 0.074,0.508 0.105,0.692 0.203,1.036 0.102,0.36 0.271,0.718 0.406,1.076" />
  <path
     style="fill:none;stroke:#000000;stroke-width:2;stroke-linecap:round;stroke-linejoin:round"
     inkscape:connector-curvature="0"
     id="path1254"
     d="m 329.90908,96.363892 c -0.907,-0.075 -2.419,-0.659 -2.721,-0.224 -0.419,0.604 2.581,3.875998 2.234,4.752998 -0.225,0.568 -1.736,1.047 -2.051,0.812 -0.325,-0.242 0.135,-1.557 0.203,-2.334998" />
  <path
     style="fill:none;stroke:#000000;stroke-width:2;stroke-linecap:round;stroke-linejoin:round"
     inkscape:connector-curvature="0"
     id="path1256"
     d="m 331.90008,96.688892 c 0.352,1.184 0.644,3.532998 1.056,3.553998 0.413,0.021 0.869,-3.407998 1.422,-3.452998 0.53,-0.043 1.184,2.917 1.807,2.925 0.641,0.008 1.482,-3.118 1.99,-3.046 0.505,0.071 0.834,2.94 1.056,3.431998 0.066,0.144 0.109,0.176 0.163,0.264" />
  <path
     style="fill:none;stroke:#000000;stroke-width:2;stroke-linecap:round;stroke-linejoin:round"
     inkscape:connector-curvature="0"
     id="path1258"
     d="m 341.38408,97.602892 c -0.047,-0.075 -0.113,-0.234 -0.142,-0.224 -0.086,0.03 -0.141,1.91 0.244,2.376 0.322,0.390998 1.132,0.668998 1.604,0.487998 0.634,-0.242998 1.793,-2.075998 1.564,-2.578998 -0.218,-0.48 -2.435,-0.76 -2.701,-0.467 -0.179,0.196 0.216,0.798 0.325,1.198" />
  <path
     style="fill:none;stroke:#000000;stroke-width:2;stroke-linecap:round;stroke-linejoin:round"
     inkscape:connector-curvature="0"
     id="path1260"
     d="m 346.70508,98.313892 c 0,-0.156 0.039,-0.46 0,-0.468 -0.071,-0.014 -0.774,1.134 -0.609,1.483 0.191,0.404 1.471,0.830998 2.051,0.63 0.662,-0.23 1.722,-1.942 1.584,-2.295 -0.079,-0.203 -0.61,-0.252 -0.893,-0.203 -0.294,0.05 -0.555,0.352 -0.833,0.528" />
  <path
     style="fill:none;stroke:#000000;stroke-width:2;stroke-linecap:round;stroke-linejoin:round"
     inkscape:connector-curvature="0"
     id="path1262"
     d="m 352.41208,92.646892 c -0.02,0.034 -0.047,0.038 -0.061,0.102 -0.101,0.463 0.454,4.828 0.67,6.133 0.104,0.621 0.208,0.981 0.305,1.360998 0.07,0.276 0.161,0.564 0.203,0.711 0.019,0.065 0.05,0.137 0.041,0.142 -0.022,0.01 -0.285,-0.433 -0.427,-0.65" />
  <path
     style="fill:none;stroke:#000000;stroke-width:2;stroke-linecap:round;stroke-linejoin:round"
     inkscape:connector-curvature="0"
     id="path1264"
     d="m 351.37608,96.708892 c 0.048,-0.013 0.061,-0.024 0.143,-0.04 0.439,-0.089 3.171,-0.279 4.285,-0.508 0.732,-0.151 1.191,-0.352 1.787,-0.528" />
  <path
     style="fill:none;stroke:#000000;stroke-width:2;stroke-linecap:round;stroke-linejoin:round"
     inkscape:connector-curvature="0"
     id="path1266"
     d="m 357.18508,93.377892 c -0.021,0.745 -0.158,1.378 -0.061,2.234 0.135,1.202 0.509,4.16 1.097,4.265 0.562,0.101 1.634,-3.345 2.295,-3.31 0.581,0.03 1.054,2.144 1.502,2.742 0.254,0.338 0.474,0.474 0.711,0.709998" />
  <path
     style="fill:none;stroke:#000000;stroke-width:2;stroke-linecap:round;stroke-linejoin:round"
     inkscape:connector-curvature="0"
     id="path1268"
     d="m 367.56308,92.910892 c 0.379,1.821 0.834,4.457 1.137,5.463 0.12,0.399 0.132,0.633 0.325,0.813 0.193,0.179 0.555,0.176 0.833,0.264" />
  <path
     style="fill:none;stroke:#000000;stroke-width:2;stroke-linecap:round;stroke-linejoin:round"
     inkscape:connector-curvature="0"
     id="path1270"
     d="m 372.68108,95.672892 c 0.237,1.002 0.362,2.404 0.711,3.006 0.19,0.329 0.446,0.42 0.67,0.63" />
  <path
     style="fill:none;stroke:#000000;stroke-width:2;stroke-linecap:round;stroke-linejoin:round"
     inkscape:connector-curvature="0"
     id="path1272"
     d="m 372.96508,92.606892 c -0.115,0.007 -0.272,-0.059 -0.345,0.02 -0.137,0.148 0.013,0.799 0.02,1.198" />
  <path
     style="fill:none;stroke:#000000;stroke-width:2;stroke-linecap:round;stroke-linejoin:round"
     inkscape:connector-curvature="0"
     id="path1274"
     d="m 376.49908,94.819892 c 0.271,1.341 0.257,3.879 0.812,4.022 0.518,0.132 1.723,-2.801 2.295,-2.722 0.482,0.067 0.664,1.681 1.036,2.295 0.282,0.466 0.596,0.758 0.894,1.137" />
  <path
     style="fill:none;stroke:#000000;stroke-width:2;stroke-linecap:round;stroke-linejoin:round"
     inkscape:connector-curvature="0"
     id="path1276"
     d="m 383.77008,95.246892 c 0.386,0.359 0.708,1.034 1.157,1.076 0.528,0.05 1.904,-0.995 1.848,-1.157 -0.058,-0.173 -2.074,-0.23 -2.457,0.243 -0.427,0.528 -0.159,2.513 0.345,3.047 0.412,0.435 1.402,0.374 2.011,0.345 0.518,-0.025 0.948,-0.257 1.422,-0.386" />
  <path
     style="fill:none;stroke:#000000;stroke-width:2;stroke-linecap:round;stroke-linejoin:round"
     inkscape:connector-curvature="0"
     id="path1278"
     d="m 391.10108,98.373892 c 0.014,0.021 0.03,0.031 0.041,0.061 0.025,0.069 0.027,0.244 0.041,0.366" />
  <path
     style="fill:none;stroke:#66b032;stroke-width:2;stroke-linecap:round;stroke-linejoin:round"
     inkscape:connector-curvature="0"
     id="path1280"
     d="m 278.43708,93.884892 c -0.081,0.071 -0.228,0.085 -0.242,0.212 -0.057,0.521 2.294,4.528 3.236,4.415 1.061,-0.127 3.19176,-8.28255 4.30876,-10.08455"
     sodipodi:nodetypes="cccc" />
  <path
     style="fill:none;stroke:#000000;stroke-width:2;stroke-linecap:round;stroke-linejoin:round"
     inkscape:connector-curvature="0"
     id="path1282"
     d="m 291.84108,127.50289 c 0.314,0.015 0.52,3.658 0.786,6.683 0.558,6.348 1.839,29.564 1.724,29.578 -0.012,0.001 -0.04,-0.17 -0.06,-0.333 -0.056,-0.432 -0.121,-1.592 -0.182,-2.389"
     sodipodi:nodetypes="ccccc" />
  <path
     style="fill:none;stroke:#000000;stroke-width:2;stroke-linecap:round;stroke-linejoin:round"
     d="m 290.40906,125.94966 c -0.91389,1.84408 -1.75039,3.72669 -2.72081,5.54254 -0.39727,-0.64619 0.22489,-1.44156 0.22237,-2.17001 0.42252,-1.9857 0.94996,-3.98641 1.95414,-5.76541 0.47201,-0.56876 1.27117,-0.12937 1.5924,0.37674 1.73039,2.04784 2.66173,4.76461 4.92664,6.34458 0.28218,0.23173 0.56548,0.46223 0.8402,0.70283"
     id="path1284"
     inkscape:connector-curvature="0" />
  <path
     style="fill:none;stroke:#000000;stroke-width:2;stroke-linecap:round;stroke-linejoin:round"
     inkscape:connector-curvature="0"
     id="path1286"
     d="m 293.53508,163.55189 c 0.594,-0.121 0.984,-0.252 1.784,-0.363 1.595,-0.221 3.681,-0.372 7.228,-0.544 9.842,-0.477 54.77,1.813 55.8,-1.21 0.343,-1.008 -4.929,-3.772 -4.839,-3.901 0.097,-0.14 6.186,2.425 6.351,3.75 0.132,1.061 -2.388,2.57 -3.357,3.327 -0.628,0.49 -1.129,0.685 -1.694,1.028" />
  <path
     style="fill:none;stroke:#000000;stroke-width:2;stroke-linecap:round;stroke-linejoin:round"
     inkscape:connector-curvature="0"
     id="path1288"
     d="m 303.48508,133.61189 c -0.081,-0.02 -0.209,-0.1 -0.242,-0.061 -0.082,0.096 0.383,0.888 0.574,1.331" />
  <path
     style="fill:none;stroke:#000000;stroke-width:2;stroke-linecap:round;stroke-linejoin:round"
     inkscape:connector-curvature="0"
     id="path1290"
     d="m 306.17608,143.22889 c -0.07,0.04 -0.171,0.047 -0.211,0.121 -0.065,0.117 0.02,0.403 0.03,0.605" />
  <path
     style="fill:none;stroke:#000000;stroke-width:2;stroke-linecap:round;stroke-linejoin:round"
     inkscape:connector-curvature="0"
     id="path1292"
     d="m 307.23508,150.33589 c -0.04,0.091 -0.132,0.163 -0.121,0.272 0.02,0.194 0.363,0.504 0.544,0.756" />
  <path
     style="fill:none;stroke:#000000;stroke-width:2;stroke-linecap:round;stroke-linejoin:round"
     inkscape:connector-curvature="0"
     id="path1294"
     d="m 317.48708,140.65789 c -0.07,-0.06 -0.127,-0.12 -0.211,-0.181 -0.109,-0.079 -0.262,-0.161 -0.393,-0.242" />
  <path
     style="fill:none;stroke:#000000;stroke-width:2;stroke-linecap:round;stroke-linejoin:round"
     inkscape:connector-curvature="0"
     id="path1296"
     d="m 312.76908,135.06389 c -0.151,-0.111 -0.301,-0.257 -0.453,-0.333 -0.13,-0.066 -0.357,-0.148 -0.393,-0.121 -0.014,0.01 0,0.04 0,0.06" />
  <path
     style="fill:none;stroke:#000000;stroke-width:2;stroke-linecap:round;stroke-linejoin:round"
     inkscape:connector-curvature="0"
     id="path1298"
     d="m 314.25108,147.16089 c -0.03,0.02 -0.085,0.023 -0.09,0.06 -0.019,0.136 0.625,0.726 0.937,1.089" />
  <path
     style="fill:none;stroke:#000000;stroke-width:2;stroke-linecap:round;stroke-linejoin:round"
     inkscape:connector-curvature="0"
     id="path1300"
     d="m 321.84208,153.99589 c 0.585,-0.051 1.17,-0.101 1.755,-0.152" />
  <path
     style="fill:none;stroke:#000000;stroke-width:2;stroke-linecap:round;stroke-linejoin:round"
     inkscape:connector-curvature="0"
     id="path1302"
     d="m 335.15008,152.08989 c 0,0.02 -0.015,0.042 0,0.061 0.045,0.056 0.363,0.08 0.544,0.121" />
  <path
     style="fill:none;stroke:#000000;stroke-width:2;stroke-linecap:round;stroke-linejoin:round"
     inkscape:connector-curvature="0"
     id="path1304"
     d="m 341.31908,150.18489 c -0.07,-0.02 -0.144,-0.001 -0.211,-0.061 -0.145,-0.128 -0.262,-0.625 -0.393,-0.937" />
  <path
     style="fill:none;stroke:#000000;stroke-width:2;stroke-linecap:round;stroke-linejoin:round"
     inkscape:connector-curvature="0"
     id="path1306"
     d="m 341.80308,139.32789 c -0.232,-0.182 -0.453,-0.423 -0.695,-0.545 -0.214,-0.107 -0.444,-0.121 -0.666,-0.181" />
  <path
     style="fill:none;stroke:#000000;stroke-width:2;stroke-linecap:round;stroke-linejoin:round"
     inkscape:connector-curvature="0"
     id="path1308"
     d="m 330.09908,138.84389 c -0.06,-0.03 -0.114,-0.059 -0.181,-0.091 -0.082,-0.038 -0.182,-0.08 -0.273,-0.121" />
  <path
     style="fill:none;stroke:#000000;stroke-width:2;stroke-linecap:round;stroke-linejoin:round"
     inkscape:connector-curvature="0"
     id="path1310"
     d="m 327.77008,144.43889 c 0.484,0.181 0.968,0.363 1.452,0.544" />
  <path
     style="fill:none;stroke:#000000;stroke-width:2;stroke-linecap:round;stroke-linejoin:round"
     inkscape:connector-curvature="0"
     id="path1312"
     d="m 339.62608,150.39689 c 1.018,-0.021 2.036,-0.041 3.054,-0.061" />
  <path
     style="fill:none;stroke:#000000;stroke-width:2;stroke-linecap:round;stroke-linejoin:round"
     inkscape:connector-curvature="0"
     id="path1314"
     d="m 347.30808,154.38889 c 0.403,0.312 1.062,0.541 1.209,0.937 0.141,0.378 -0.303,1.353 -0.272,1.361 0.035,0.01 0.383,-1.129 0.575,-1.693" />
  <path
     style="fill:none;stroke:#000000;stroke-width:2;stroke-linecap:round;stroke-linejoin:round"
     inkscape:connector-curvature="0"
     id="path1316"
     d="m 350.66508,145.70889 c -0.071,-0.171 -0.108,-0.344 -0.212,-0.514 -0.124,-0.203 -0.343,-0.403 -0.514,-0.605" />
  <path
     style="fill:none;stroke:#000000;stroke-width:2;stroke-linecap:round;stroke-linejoin:round"
     inkscape:connector-curvature="0"
     id="path1318"
     d="m 338.71808,143.92489 c -0.121,-0.071 -0.344,-0.231 -0.362,-0.212 -0.014,0.014 0.08,0.121 0.12,0.181" />
  <path
     style="fill:none;stroke:#000000;stroke-width:2;stroke-linecap:round;stroke-linejoin:round"
     inkscape:connector-curvature="0"
     id="path1320"
     d="m 330.91608,151.57589 c -0.041,0.02 -0.105,0.019 -0.121,0.061 -0.034,0.087 0.141,0.362 0.211,0.544" />
  <path
     style="fill:none;stroke:#000000;stroke-width:2;stroke-linecap:round;stroke-linejoin:round"
     inkscape:connector-curvature="0"
     id="path1322"
     d="m 327.04408,158.47089 c 0.595,-0.05 1.19,-0.1 1.785,-0.151" />
  <path
     style="fill:none;stroke:#0392ce;stroke-width:2;stroke-linecap:round;stroke-linejoin:round"
     inkscape:connector-curvature="0"
     id="path1324"
     d="m 302.54708,135.78889 c 0.03,-0.04 0.024,-0.097 0.091,-0.121 0.348,-0.122 2.058,0.463 4.022,1.029 5.56,1.601 22.127,6.754 31.665,10.161 8.03,2.869 20.917,8.199 21.927,8.65 0.076,0.034 0.081,0.04 0.121,0.06" />
  <path
     style="fill:none;stroke:#000000;stroke-width:2;stroke-linecap:round;stroke-linejoin:round"
     inkscape:connector-curvature="0"
     id="path1326"
     d="m 21.815081,95.652892 c -0.111,-0.343 -0.297,-1.037 -0.332,-1.028 -0.085,0.021 0.006,5.447998 1.058,6.168998 0.823,0.564 2.5,-0.504 3.75,-0.756" />
  <path
     style="fill:none;stroke:#000000;stroke-width:2;stroke-linecap:round;stroke-linejoin:round"
     inkscape:connector-curvature="0"
     id="path1328"
     d="m 23.842081,91.116892 c -0.626,-0.968 -2.108,-2.579 -1.876,-2.904 0.207,-0.289 1.775,0.444 2.662,0.666" />
  <path
     style="fill:none;stroke:#000000;stroke-width:2;stroke-linecap:round;stroke-linejoin:round"
     inkscape:connector-curvature="0"
     id="path1330"
     d="m 32.068081,91.327892 c 0.232,-0.04 0.483,0.041 0.695,-0.121 0.373,-0.282 0.992,-1.321 0.938,-1.965 -0.057,-0.688 -0.793,-1.643 -1.422,-2.027 -0.596,-0.363 -1.738,-0.633 -2.207,-0.302 -0.528,0.372 -0.512,1.415 -0.575,2.752 -0.164,3.498 2.674,18.667998 2.147,19.113998 -0.056,0.047 -0.141,-0.041 -0.211,-0.061" />
  <path
     style="fill:none;stroke:#000000;stroke-width:2;stroke-linecap:round;stroke-linejoin:round"
     inkscape:connector-curvature="0"
     id="path1332"
     d="m 27.592081,101.88289 c 0.151,-0.081 0.211,-0.153 0.453,-0.242 0.766,-0.281 3.666,-0.862 5.021,-1.089 0.909,-0.152 1.532,-0.181 2.298,-0.272" />
  <path
     style="fill:none;stroke:#000000;stroke-width:2;stroke-linecap:round;stroke-linejoin:round"
     inkscape:connector-curvature="0"
     id="path1334"
     d="m 49.821081,94.715892 c -0.03,0 -0.064,-0.027 -0.091,0 -0.201,0.202 -0.178,4.331 0.03,5.201 0.075,0.313998 0.207,0.527998 0.303,0.604998 0.041,0.033 0.08,0.02 0.121,0.03" />
  <path
     style="fill:none;stroke:#000000;stroke-width:2;stroke-linecap:round;stroke-linejoin:round"
     inkscape:connector-curvature="0"
     id="path1336"
     d="m 48.369081,90.027892 c -0.161,-0.222 -0.369,-0.691 -0.484,-0.665 -0.131,0.028 -0.258,0.639 -0.212,1.058 0.075,0.669 0.746,1.674 1.12,2.51" />
  <path
     style="fill:none;stroke:#000000;stroke-width:2;stroke-linecap:round;stroke-linejoin:round"
     inkscape:connector-curvature="0"
     id="path1338"
     d="m 52.815081,94.200892 c 0.413,1.704 0.681,5.06 1.24,5.112 0.546,0.05 1.325,-4.524 2.056,-4.597 0.577,-0.058 1.259,1.968 1.815,2.54 0.352,0.362 0.665,0.504 0.998,0.756" />
  <path
     style="fill:none;stroke:#000000;stroke-width:2;stroke-linecap:round;stroke-linejoin:round"
     inkscape:connector-curvature="0"
     id="path1340"
     d="m 60.648081,94.261892 c -0.03,0.04 -0.07,0.047 -0.091,0.121 -0.089,0.322 0.117,1.589 0.303,2.873 0.383,2.656 2.411,12.109998 2.238,12.157998 -0.058,0.016 -0.305,-0.659 -0.484,-1.301 -0.466,-1.672 -2.104,-6.871 -1.754,-9.253998 0.239,-1.628 1.259,-3.814 2.026,-3.901 0.684,-0.078 2.315,1.845 2.268,2.661 -0.044,0.769 -1.856,2.191 -2.268,2.117 -0.211,-0.038 -0.353,-0.479 -0.363,-0.726 -0.01,-0.247 0.202,-0.504 0.303,-0.756" />
  <path
     style="fill:none;stroke:#000000;stroke-width:2;stroke-linecap:round;stroke-linejoin:round"
     inkscape:connector-curvature="0"
     id="path1342"
     d="m 66.213081,96.076892 c 0.02,0 0.036,-0.015 0.06,0 0.121,0.074 0.428,0.811 0.666,1.33 0.323,0.707 0.457,2.306 1.058,2.541 0.616,0.239998 2.089,-0.551 2.631,-1.21 0.525,-0.638 0.494,-2.641 0.635,-2.631 0.124,0.008 -0.191,1.55 0.212,2.026 0.506,0.596 2.136,1.164 3.085,0.847 1.232,-0.412 2.853,-2.722 3.297,-4.264 0.41,-1.429 -0.407,-4.601 -0.454,-4.597 -0.057,0.004 -0.399,5.437 0.302,6.986 0.454,1.002 1.577,1.864 2.117,2.026 0.26,0.078 0.444,-0.081 0.666,-0.121" />
  <path
     style="fill:none;stroke:#000000;stroke-width:2;stroke-linecap:round;stroke-linejoin:round"
     inkscape:connector-curvature="0"
     id="path1344"
     d="m 75.498081,94.442892 c -0.01,-0.02 -0.042,-0.042 -0.031,-0.06 0.076,-0.126 2.208,-0.051 3.297,-0.061 1.068,-0.009 2.117,0 3.175,0" />
  <path
     style="fill:none;stroke:#000000;stroke-width:2;stroke-linecap:round;stroke-linejoin:round"
     inkscape:connector-curvature="0"
     id="path1346"
     d="m 93.509081,89.839892 c -1.025,-0.063 -2.131,-0.486 -3.077,-0.188 -1.011,0.318 -2.812,1.449 -2.759,2.193 0.068,0.953 4.338,1.764 4.999,2.924 0.44,0.771 0.447,1.84 -0.011,2.558 -0.662,1.036 -3.491,2.116 -4.823,2.264 -0.883,0.098 -1.931,-0.087 -2.287,-0.507 -0.283,-0.333 -0.055,-0.982 -0.083,-1.474" />
  <path
     style="fill:none;stroke:#000000;stroke-width:2;stroke-linecap:round;stroke-linejoin:round"
     inkscape:connector-curvature="0"
     id="path1348"
     d="m 88.121081,86.680892 c 0.153,1.733 0.26,3.175 0.46,5.199 0.281,2.848 0.906,8.784998 1.12,10.269998 0.06,0.413 0.069,0.769 0.142,0.79 0.033,0.009 0.078,-0.087 0.117,-0.13" />
  <path
     style="fill:none;stroke:#000000;stroke-width:2;stroke-linecap:round;stroke-linejoin:round"
     inkscape:connector-curvature="0"
     id="path1350"
     d="m 91.941081,86.656892 c -0.082,0.735 -0.204,1.152 -0.247,2.205 -0.109,2.63 0.187,11.659998 0.401,13.841998 0.066,0.681 0.116,0.992 0.224,1.332 0.071,0.227 0.173,0.362 0.259,0.542" />
  <path
     style="fill:none;stroke:#000000;stroke-width:2;stroke-linecap:round;stroke-linejoin:round"
     inkscape:connector-curvature="0"
     id="path1352"
     d="m 100.10108,94.178892 c -0.848999,0.385 -2.414999,0.56 -2.546999,1.156 -0.159,0.714 2.759999,2.431 2.616999,3.053 -0.095,0.417 -1.223999,0.635 -1.649999,0.72 -0.252,0.05 -0.518,0.095 -0.625,-0.012 -0.111,-0.111 -0.008,-0.44 -0.012,-0.66" />
  <path
     style="fill:none;stroke:#000000;stroke-width:2;stroke-linecap:round;stroke-linejoin:round"
     inkscape:connector-curvature="0"
     id="path1354"
     d="m 102.96608,94.567892 c 0.204,1.612 0.512,4.836 0.613,4.834 0.039,0 0.002,-0.398 0.071,-0.742 0.166,-0.842 0.921,-4.271 1.296,-4.257 0.37,0.014 0.424,4.125 0.944,4.209 0.501,0.082 1.605,-3.505 2.075,-3.431 0.422,0.068 0.619,2.487 0.731,3.148 0.051,0.3 -0.023,0.492 0.071,0.661 0.084,0.151 0.283,0.22 0.424,0.33" />
  <path
     style="fill:none;stroke:#000000;stroke-width:2;stroke-linecap:round;stroke-linejoin:round"
     inkscape:connector-curvature="0"
     id="path1356"
     d="m 110.87708,95.888892 c 0.507,1.108 0.73,3.115 1.521,3.325 0.888,0.235 3.813,-1.967 3.738,-2.688 -0.069,-0.656 -2.439,-1.656 -3.478,-1.533 -0.959,0.113 -2.428,1.306 -2.571,1.957 -0.097,0.445 0.472,0.888 0.708,1.332" />
  <path
     style="fill:none;stroke:#000000;stroke-width:2;stroke-linecap:round;stroke-linejoin:round"
     inkscape:connector-curvature="0"
     id="path1358"
     d="m 119.35508,96.088892 c -0.232,-0.09 -0.535,-0.37 -0.696,-0.271 -0.275,0.17 -0.576,1.81 -0.2,2.181 0.498,0.493 3.447,0.232 3.832,-0.401 0.348,-0.572 -0.492,-2.535 -1.156,-2.947 -0.569,-0.354 -1.818,-0.084 -2.323,0.2 -0.35,0.198 -0.639,0.591 -0.66,0.908 -0.021,0.32 0.362,0.668 0.542,1.002" />
  <path
     style="fill:none;stroke:#000000;stroke-width:2;stroke-linecap:round;stroke-linejoin:round"
     inkscape:connector-curvature="0"
     id="path1360"
     d="m 125.29708,90.205892 c -0.004,0.027 -0.008,0.035 -0.011,0.082 -0.018,0.269 -0.041,1.621 0.035,2.712 0.116,1.679 0.532,5.495 0.802,6.367 0.074,0.241 0.176,0.348 0.224,0.436 0.021,0.039 0.045,0.084 0.047,0.083 0.004,-0.002 -0.228,-0.472 -0.342,-0.708" />
  <path
     style="fill:none;stroke:#000000;stroke-width:2;stroke-linecap:round;stroke-linejoin:round"
     inkscape:connector-curvature="0"
     id="path1362"
     d="m 123.12808,94.744892 c 0,-0.094 -0.07,-0.201 0,-0.283 0.21,-0.245 1.783,-0.307 2.523,-0.389 0.576,-0.064 0.991,-0.045 1.545,-0.106 0.65,-0.071 1.407,-0.212 2.11,-0.318" />
  <path
     style="fill:none;stroke:#000000;stroke-width:2;stroke-linecap:round;stroke-linejoin:round"
     inkscape:connector-curvature="0"
     id="path1364"
     d="m 130.01408,89.910892 c -0.067,-0.078 -0.158,-0.255 -0.201,-0.236 -0.238,0.109 0.856,9.261 1.45,9.303 0.439,0.031 0.922,-4.88 1.498,-4.905 0.591,-0.025 1.185,4.238 2.016,5.023 0.446,0.42 0.936,0.516 1.474,0.495 0.671,-0.026 1.486,-0.629 2.228,-0.943" />
  <path
     style="fill:none;stroke:#000000;stroke-width:2;stroke-linecap:round;stroke-linejoin:round"
     inkscape:connector-curvature="0"
     id="path1366"
     d="m 142.61808,94.225892 c 0.157,-0.015 0.246,-0.033 0.471,-0.047 0.564,-0.035 2.226,-0.086 2.972,-0.07 0.451,0.009 0.723,0.047 1.085,0.07" />
  <path
     style="fill:none;stroke:#000000;stroke-width:2;stroke-linecap:round;stroke-linejoin:round"
     inkscape:connector-curvature="0"
     id="path1368"
     d="m 142.42908,96.855892 c 0.059,0 0.08,0.001 0.177,0 0.444,-0.007 2.647,-0.107 3.726,-0.118 0.827,-0.009 1.462,0.015 2.193,0.023" />
  <path
     style="fill:none;stroke:#000000;stroke-width:2;stroke-linecap:round;stroke-linejoin:round"
     inkscape:connector-curvature="0"
     id="path1370"
     d="m 150.52908,93.730892 c 0.012,-0.008 0.013,-0.017 0.036,-0.023 0.193,-0.056 2.397,-0.098 2.959,0.094 0.259,0.088 0.338,0.244 0.507,0.365" />
  <path
     style="fill:none;stroke:#000000;stroke-width:2;stroke-linecap:round;stroke-linejoin:round"
     inkscape:connector-curvature="0"
     id="path1372"
     d="m 150.49408,96.572892 c 0.008,0.035 -0.013,0.074 0.024,0.106 0.189,0.165 2.028,0.248 2.877,0.236 0.675,-0.01 1.21,-0.134 1.815,-0.201" />
  <path
     style="fill:none;stroke:#000000;stroke-width:2;stroke-linecap:round;stroke-linejoin:round"
     inkscape:connector-curvature="0"
     id="path1374"
     d="m 159.62008,89.179892 c -0.031,-0.11 -0.079,-0.333 -0.094,-0.33 -0.037,0.007 0.102,1.449 0.165,1.957 0.04,0.327 0.064,0.541 0.13,0.802 0.064,0.258 0.172,0.503 0.259,0.755" />
  <path
     style="fill:none;stroke:#000000;stroke-width:2;stroke-linecap:round;stroke-linejoin:round"
     inkscape:connector-curvature="0"
     id="path1376"
     d="m 162.91008,91.195892 c -0.024,-0.275 -0.17,-0.788 -0.071,-0.825 0.239,-0.089 2.037,3.954 2.865,3.926 0.69,-0.023 1.713,-2.9 1.804,-2.853 0.105,0.054 -1.492,2.866 -1.71,4.127 -0.17,0.991 -0.072,2.17 0.142,2.758 0.118,0.325 0.338,0.449 0.507,0.673" />
  <path
     style="fill:none;stroke:#000000;stroke-width:2;stroke-linecap:round;stroke-linejoin:round"
     inkscape:connector-curvature="0"
     id="path1378"
     d="m 169.59508,94.933892 c 0,0.094 -0.067,0.234 0,0.283 0.196,0.144 2.306,-0.499 2.311,-0.731 0.004,-0.185 -0.988,-0.641 -1.438,-0.531 -0.546,0.134 -1.328,1.031 -1.51,1.663 -0.173,0.605 -0.029,1.595 0.366,2.028 0.401,0.439 1.368,0.377 2.051,0.566" />
  <path
     style="fill:none;stroke:#000000;stroke-width:2;stroke-linecap:round;stroke-linejoin:round"
     inkscape:connector-curvature="0"
     id="path1380"
     d="m 175.10108,93.718892 c 0.393,1.258 1.487,2.917 1.179,3.773 -0.235,0.655 -1.465,1.279 -1.933,1.262 -0.279,-0.01 -0.433,-0.33 -0.649,-0.495" />
  <path
     style="fill:none;stroke:#000000;stroke-width:2;stroke-linecap:round;stroke-linejoin:round"
     inkscape:connector-curvature="0"
     id="path1382"
     d="m 178.62708,88.401892 c -0.024,0.169 -0.073,0.305 -0.071,0.507 0.002,0.303 0.101,0.732 0.177,1.132 0.087,0.457 0.22,0.974 0.33,1.462" />
  <path
     style="fill:none;stroke:#000000;stroke-width:2;stroke-linecap:round;stroke-linejoin:round"
     inkscape:connector-curvature="0"
     id="path1384"
     d="m 42.452081,85.350892 c -0.112,-0.354 -0.184,-1.064 -0.336,-1.061 -0.419,0.01 -1.817,5.695 -2.172,8.198 -0.291,2.05 -0.388,3.729 -0.129,5.689 0.288,2.186998 1.327,4.533998 1.991,6.800998" />
  <path
     style="fill:none;stroke:#000000;stroke-width:2;stroke-linecap:round;stroke-linejoin:round"
     inkscape:connector-curvature="0"
     id="path1386"
     d="m 180.75108,79.454892 c 0.767,0.827 1.704,1.343 2.302,2.482 0.862,1.644 1.721,4.252 1.526,6.879 -0.276,3.712 -3.362,8.757 -5.043,13.135998" />
  <path
     style="fill:none;stroke:#000000;stroke-width:2;stroke-linecap:round;stroke-linejoin:round"
     inkscape:connector-curvature="0"
     id="path1388"
     d="m 43.377081,113.48889 c -0.06,-0.051 -0.126,-0.178 -0.181,-0.155 -0.279,0.118 -0.4,4.941 -0.388,6.232 0.006,0.583 0.052,1.016 0.104,1.267 0.022,0.111 0.052,0.156 0.077,0.233" />
  <path
     style="fill:none;stroke:#000000;stroke-width:2;stroke-linecap:round;stroke-linejoin:round"
     inkscape:connector-curvature="0"
     id="path1390"
     d="m 40.688081,118.35089 c 0.017,-0.078 -0.02,-0.183 0.052,-0.233 0.21,-0.146 1.314,0.269 2.043,0.285 0.834,0.017 1.772,-0.124 2.689,-0.259 0.976,-0.143 2,-0.396 3,-0.595" />
  <path
     style="fill:none;stroke:#000000;stroke-width:2;stroke-linecap:round;stroke-linejoin:round"
     inkscape:connector-curvature="0"
     id="path1392"
     d="m 59.954081,118.27289 c 0.025,-0.793 0.441,-2.002 0.077,-2.379 -0.329,-0.339 -1.386,-0.386 -1.939,0 -0.967,0.675 -2.585,4.644 -2.043,5.56 0.402,0.681 2.385,0.914 3.232,0.491 0.96,-0.479 1.554,-3.791 1.991,-3.698 0.583,0.125 0.118,5.012 0.543,7.422 0.419,2.372 1.261,5.769 1.966,6.93 0.293,0.483 0.603,0.569 0.905,0.854" />
  <path
     style="fill:none;stroke:#000000;stroke-width:2;stroke-linecap:round;stroke-linejoin:round"
     inkscape:connector-curvature="0"
     id="path1394"
     d="m 66.962081,120.05789 c 0.663,0.301 1.45,1.085 1.991,0.905 0.618,-0.206 1.566,-1.95 1.37,-2.509 -0.168,-0.482 -1.327,-0.921 -1.965,-0.827 -0.72,0.106 -1.685,0.948 -2.095,1.732 -0.461,0.884 -0.714,2.608 -0.284,3.44 0.397,0.768 1.524,1.442 2.534,1.5 1.398,0.079 3.431,-1.535 5.146,-2.302" />
  <path
     style="fill:none;stroke:#000000;stroke-width:2;stroke-linecap:round;stroke-linejoin:round"
     inkscape:connector-curvature="0"
     id="path1396"
     d="m 74.978081,119.20389 c -0.103,0.052 -0.27,0.037 -0.31,0.155 -0.127,0.377 0.75,2.877 1.551,3.155 0.832,0.289 3.25,-0.881 3.414,-1.629 0.16,-0.733 -1.467,-2.548 -2.327,-2.793 -0.695,-0.197 -1.905,0.364 -2.25,0.75 -0.21,0.235 -0.121,0.569 -0.181,0.854" />
  <path
     style="fill:none;stroke:#000000;stroke-width:2;stroke-linecap:round;stroke-linejoin:round"
     inkscape:connector-curvature="0"
     id="path1398"
     d="m 81.029081,116.77389 c -0.008,0.137 -0.045,0.204 -0.025,0.413 0.064,0.703 0.898,4.49 1.137,4.526 0.061,0.009 0.083,-0.117 0.156,-0.259 0.283,-0.556 1.214,-4.249 1.81,-4.241 0.62,0.009 1.138,4.623 1.836,4.655 0.733,0.033 1.815,-4.999 2.482,-4.939 0.654,0.058 1.279,4.213 1.5,5.094 0.077,0.304 0.086,0.414 0.13,0.621" />
  <path
     style="fill:none;stroke:#000000;stroke-width:2;stroke-linecap:round;stroke-linejoin:round"
     inkscape:connector-curvature="0"
     id="path1400"
     d="m 94.528081,121.58289 c 0.052,0.043 0.062,0.086 0.155,0.13 0.348,0.161 1.969,0.478 2.767,0.491 0.606,0.01 1.069,-0.155 1.604,-0.233" />
  <path
     style="fill:none;stroke:#000000;stroke-width:2;stroke-linecap:round;stroke-linejoin:round"
     inkscape:connector-curvature="0"
     id="path1402"
     d="m 108.64808,117.00589 c -0.397,-0.508 -0.668,-1.37 -1.19,-1.525 -0.561,-0.168 -1.612,0.287 -2.12,0.724 -0.475,0.407 -0.922,1.033 -0.905,1.732 0.026,1.108 2.782,3.331 2.482,4.241 -0.238,0.722 -2.473,1.484 -2.844,1.215 -0.283,-0.204 0.103,-1.189 0.155,-1.784" />
  <path
     style="fill:none;stroke:#000000;stroke-width:2;stroke-linecap:round;stroke-linejoin:round"
     inkscape:connector-curvature="0"
     id="path1404"
     d="m 110.71708,116.87689 c 0,0.009 -0.003,0.01 0,0.026 0.036,0.254 1.103,6.298 1.836,6.335 0.765,0.039 2.041,-6.725 2.689,-6.671 0.548,0.045 0.378,4.837 1.112,5.016 0.728,0.179 2.339,-3.965 3.258,-3.879 0.85,0.08 1.48,2.845 2.121,3.776 0.415,0.603 0.776,0.931 1.164,1.396" />
  <path
     style="fill:none;stroke:#000000;stroke-width:2;stroke-linecap:round;stroke-linejoin:round"
     inkscape:connector-curvature="0"
     id="path1406"
     d="m 128.22408,116.48889 c -0.043,1.681 -0.857,4.416 -0.13,5.043 0.599,0.515 3.017,0.027 3.362,-0.595 0.34,-0.614 -0.56,-2.545 -1.241,-3.077 -0.56,-0.438 -1.788,-0.549 -2.224,-0.311 -0.306,0.168 -0.31,0.673 -0.465,1.009" />
  <path
     style="fill:none;stroke:#000000;stroke-width:2;stroke-linecap:round;stroke-linejoin:round"
     inkscape:connector-curvature="0"
     id="path1408"
     d="m 135.10208,117.98889 c -0.206,0.034 -0.453,-0.063 -0.62,0.103 -0.368,0.367 -0.935,2.353 -0.517,3.026 0.446,0.72 2.478,1.187 3.361,1.008 0.686,-0.138 1.441,-0.793 1.63,-1.344 0.178,-0.521 -0.01,-1.366 -0.414,-1.836 -0.516,-0.6 -2.069,-1.09 -2.845,-1.112 -0.528,-0.015 -0.896,0.293 -1.344,0.439" />
  <path
     style="fill:none;stroke:#000000;stroke-width:2;stroke-linecap:round;stroke-linejoin:round"
     inkscape:connector-curvature="0"
     id="path1410"
     d="m 142.21408,111.54989 c -0.017,0.336 -0.058,0.51 -0.052,1.008 0.019,1.437 0.703,6.659 0.647,8.353 -0.025,0.745 -0.155,1.069 -0.233,1.603" />
  <path
     style="fill:none;stroke:#000000;stroke-width:2;stroke-linecap:round;stroke-linejoin:round"
     inkscape:connector-curvature="0"
     id="path1412"
     d="m 140.48108,115.97189 c 0.069,0 0.092,-0.002 0.207,0 0.583,0.007 4.168,0.563 5.301,0.129 0.67,-0.256 1.198,-0.727 1.345,-1.267 0.167,-0.615 -0.386,-2.102 -0.672,-2.301 -0.111,-0.078 -0.272,-0.081 -0.362,0.025 -0.434,0.515 0.027,8.184 0.827,8.379 0.635,0.155 2.166,-4.564 2.897,-4.448 0.77,0.123 0.757,5.125 1.525,5.715 0.345,0.264 0.793,0 1.19,0" />
  <path
     style="fill:none;stroke:#000000;stroke-width:2;stroke-linecap:round;stroke-linejoin:round"
     inkscape:connector-curvature="0"
     id="path1414"
     d="m 160.31608,109.99789 c -0.759,0.94 -1.805,1.628 -2.276,2.819 -0.587,1.487 -0.717,3.99 -0.414,5.637 0.259,1.4 0.944,3.066 1.733,3.698 0.558,0.447 1.328,0.293 1.991,0.44" />
  <path
     style="fill:none;stroke:#000000;stroke-width:2;stroke-linecap:round;stroke-linejoin:round"
     inkscape:connector-curvature="0"
     id="path1416"
     d="m 168.12608,110.59289 c 0.887,3.362 3.029,7.377 2.663,10.085 -0.27,2.004 -1.913,3.293 -2.87,4.939" />
  <g
     id="g1718"
     transform="translate(-19.699764,-45.84912)">
    <path
       inkscape:connector-curvature="0"
       id="path1418"
       d="m 31.005,74.147 c -1.958726,52.94956 -5.951762,105.90517 -4.188946,158.91999 L 27.612363,232.32307 27.058,231.401"
       style="fill:none;stroke:#000000;stroke-width:2;stroke-linecap:round;stroke-linejoin:round" />
    <path
       inkscape:connector-curvature="0"
       id="path1420"
       d="m 30.007,76.186 c 52.078836,1.287446 104.10751,0.08115 156.1823,0.581624 14.76142,-0.434759 29.51733,-1.492692 44.1427,-3.574624"
       style="fill:none;stroke:#000000;stroke-width:2;stroke-linecap:round;stroke-linejoin:round" />
    <path
       inkscape:connector-curvature="0"
       id="path1422"
       d="m 230.028,72.673 c 4.21406,56.4174 -8.90195,112.29878 -8.023,168.66"
       style="fill:none;stroke:#000000;stroke-width:2;stroke-linecap:round;stroke-linejoin:round" />
    <path
       inkscape:connector-curvature="0"
       id="path1424"
       d="m 25.714,236.692 c 62.637985,-1.91271 125.3715,-2.59006 187.964,0.30401"
       style="fill:none;stroke:#000000;stroke-width:2;stroke-linecap:round;stroke-linejoin:round" />
  </g>
  <path
     style="fill:none;stroke:#000000;stroke-width:2;stroke-linecap:round;stroke-linejoin:round"
     inkscape:connector-curvature="0"
     id="path1426"
     d="m 23.923081,63.243892 c -0.043,-0.058 -0.148,-0.149 -0.13,-0.174 0.05,-0.067 1.041,0.376 1.562,0.564" />
  <path
     style="fill:none;stroke:#000000;stroke-width:2;stroke-linecap:round;stroke-linejoin:round"
     inkscape:connector-curvature="0"
     id="path1428"
     d="m 31.730081,61.985892 c 0,-0.058 -0.031,-0.16 0,-0.173 0.085,-0.038 0.636,0.578 0.954,0.867" />
  <path
     style="fill:none;stroke:#000000;stroke-width:2;stroke-linecap:round;stroke-linejoin:round"
     inkscape:connector-curvature="0"
     id="path1430"
     d="m 40.924081,62.636892 c 0.145,-0.029 0.276,-0.072 0.434,-0.087 0.185,-0.018 0.405,0 0.607,0" />
  <path
     style="fill:none;stroke:#000000;stroke-width:2;stroke-linecap:round;stroke-linejoin:round"
     inkscape:connector-curvature="0"
     id="path1432"
     d="m 19.109081,164.29189 c -0.043,-0.159 -0.211,-0.382 -0.13,-0.477 0.171,-0.198 1.446,0.174 2.169,0.261" />
  <path
     style="fill:none;stroke:#000000;stroke-width:2;stroke-linecap:round;stroke-linejoin:round"
     inkscape:connector-curvature="0"
     id="path1434"
     d="m 30.689081,163.77189 c 0,0 0,0 0,0 0.116,0.014 0.209,0.016 0.347,0.043 0.209,0.042 0.52,0.145 0.781,0.217" />
  <path
     style="fill:none;stroke:#000000;stroke-width:2;stroke-linecap:round;stroke-linejoin:round"
     inkscape:connector-curvature="0"
     id="path1436"
     d="m 41.011081,163.03489 c 0,0 0,0 0,0 0.116,0 0.196,0.019 0.347,0 0.297,-0.039 0.867,-0.232 1.301,-0.347" />
  <path
     style="fill:none;stroke:#66b032;stroke-width:4.83590555;stroke-linecap:round;stroke-linejoin:round;stroke-miterlimit:4;stroke-dasharray:none"
     inkscape:connector-curvature="0"
     id="path1438"
     d="m 271.69408,101.10389 c -0.014,0.116 0.028,0.328 -0.043,0.347 -0.331,0.092 -2.507,-4.160998 -4.684,-5.983998 -2.923,-2.449 -8.069,-4.756 -12.1,-6.419 -3.718,-1.533 -7.606,-2.707 -11.146,-3.383 -3.098,-0.591 -5.138,-0.904 -8.891,-0.737 -6.58,0.293 -19.699,1.628 -27.019,4.684 -5.87,2.45 -13.305,11.113998 -14.356,10.235 -0.902,-0.755 5.474,-11.788 5.552,-11.753 0.081,0.037 -6.946,11.209 -5.638,13.226998 1.065,1.645 9.541,0.169 9.541,0.174 0,0 -0.054,-0.012 -0.087,0 -0.059,0.021 -0.144,0.115 -0.217,0.173" />
  <path
     style="fill:none;stroke:#0392ce;stroke-width:4.83590555;stroke-linecap:round;stroke-linejoin:round;stroke-miterlimit:4;stroke-dasharray:none"
     inkscape:connector-curvature="0"
     id="path1440"
     d="m 186.73308,131.76589 c -0.087,0.058 -0.254,0.065 -0.26,0.173 -0.042,0.7 5.904,5.902 9.845,8.414 4.751,3.028 11.457,5.733 17.131,7.806 5.294,1.935 10.901,3.452 15.786,4.424 4.113,0.818 7.033,1.255 11.537,1.388 6.322,0.186 16.141,0.268 22.855,-1.388 5.734,-1.414 14.944,-4.7 15.223,-6.852 0.165,-1.275 -4.6,-3.624 -4.554,-3.687 0.048,-0.064 4.661,1.975 5.118,3.513 0.455,1.531 -2.243,5.181 -2.342,5.681 -0.014,0.073 0,0.087 0,0.131 0,0 0,0 0,0" />
</svg>
