<?xml version="1.0" encoding="utf-8" standalone="no"?>
<!DOCTYPE svg PUBLIC "-//W3C//DTD SVG 1.1//EN" "http://www.w3.org/Graphics/SVG/1.1/DTD/svg11.dtd">
<!-- Created with Skedio (http://skedio.shturmsoft.com/) -->
<svg version="1.1" xmlns="http://www.w3.org/2000/svg" xmlns:xlink="http://www.w3.org/1999/xlink" width="469pt" height="267pt" viewBox="0 0 469 267">
<g id="layer1">
	<path fill="none" stroke="#000000" stroke-width="2.00" stroke-linecap="round" stroke-linejoin="round" d="M91.591 27.840C89.916,27.656 88.138,26.911 86.567,27.287 84.936,27.677 82.107,28.977 82.011,30.267 81.875,32.097 90.479,35.812 90.186,37.547 89.942,38.990 84.732,40.281 83.203,40.442 82.490,40.518 81.864,40.512 81.585,40.144 81.217,39.660 81.755,38.243 81.841,37.292 "/>
	<path fill="none" stroke="#000000" stroke-width="2.00" stroke-linecap="round" stroke-linejoin="round" d="M98.403 29.756C98.559,32.098 97.993,35.397 98.871,36.781 99.451,37.695 100.595,38.289 101.554,38.271 102.685,38.250 103.995,36.795 105.215,36.057 "/>
	<path fill="none" stroke="#000000" stroke-width="2.00" stroke-linecap="round" stroke-linejoin="round" d="M97.211 30.182C97.197,30.125 97.144,30.065 97.168,30.011 97.212,29.915 97.416,29.851 97.679,29.756 98.425,29.485 100.841,28.866 102.150,28.692 103.150,28.558 104.114,28.521 104.832,28.606 105.328,28.666 105.655,28.833 106.067,28.947 "/>
	<path fill="none" stroke="#000000" stroke-width="2.00" stroke-linecap="round" stroke-linejoin="round" d="M98.105 34.312C98.105,34.312 98.105,34.312 98.105,34.312 98.616,34.226 98.963,34.185 99.638,34.056 100.964,33.802 103.555,33.205 105.513,32.779 "/>
	<path fill="none" stroke="#000000" stroke-width="2.00" stroke-linecap="round" stroke-linejoin="round" d="M111.091 31.289C111.076,33.474 110.888,37.834 111.048,37.845 111.243,37.860 111.333,29.928 112.411,28.181 112.977,27.263 114.013,26.461 114.625,26.648 115.452,26.901 116.703,29.905 116.413,31.246 116.122,32.588 112.682,33.790 112.879,34.695 113.101,35.716 117.025,36.566 118.797,36.823 120.166,37.022 121.295,36.682 122.544,36.611 "/>
	<path fill="none" stroke="#000000" stroke-width="2.00" stroke-linecap="round" stroke-linejoin="round" d="M124.800 27.925C124.786,27.911 124.765,27.878 124.758,27.883 124.684,27.927 125.516,31.943 126.376,33.290 127.055,34.355 128.338,35.830 129.015,35.631 129.897,35.373 130.444,31.255 130.633,29.884 130.736,29.142 130.557,28.715 130.633,28.138 130.711,27.551 130.945,26.974 131.102,26.392 "/>
	<path fill="none" stroke="#000000" stroke-width="2.00" stroke-linecap="round" stroke-linejoin="round" d="M135.785 27.201C135.870,29.202 135.458,31.601 136.040,33.205 136.511,34.500 137.372,35.679 138.425,36.313 139.502,36.961 141.460,37.375 142.470,36.994 143.319,36.673 143.690,35.489 144.300,34.737 "/>
	<path fill="none" stroke="#000000" stroke-width="2.00" stroke-linecap="round" stroke-linejoin="round" d="M137.105 27.840C137.190,27.840 137.219,27.850 137.360,27.840 138.059,27.792 141.955,27.099 143.577,26.989 144.611,26.918 145.696,26.728 146.131,26.989 146.363,27.128 146.358,27.414 146.472,27.627 "/>
	<path fill="none" stroke="#000000" stroke-width="2.00" stroke-linecap="round" stroke-linejoin="round" d="M135.913 32.609C136.012,32.552 136.042,32.500 136.211,32.438 136.863,32.199 139.470,31.738 141.277,31.502 143.325,31.234 145.677,31.161 147.877,30.991 "/>
	<path fill="none" stroke="#000000" stroke-width="2.00" stroke-linecap="round" stroke-linejoin="round" d="M152.943 28.777C153.000,31.487 153.314,36.889 153.114,36.909 152.931,36.927 151.778,31.895 151.922,30.224 152.010,29.185 152.229,28.374 152.816,27.755 153.481,27.053 154.980,26.256 155.924,26.435 156.920,26.625 158.399,27.940 158.606,29.075 158.871,30.530 155.415,33.510 156.009,34.695 156.638,35.952 160.823,35.777 162.821,36.142 164.377,36.426 165.603,36.568 166.994,36.781 "/>
	<path fill="none" stroke="#000000" stroke-width="2.00" stroke-linecap="round" stroke-linejoin="round" d="M290.714 68.124C290.771,68.606 290.845,68.753 290.884,69.572 291.096,74.052 290.690,96.216 289.905,113.211 288.799,137.149 284.398,184.178 283.859,199.597 283.662,205.225 283.063,210.642 283.859,211.135 284.099,211.283 284.483,210.822 284.796,210.666 "/>
	<path fill="none" stroke="#000000" stroke-width="2.00" stroke-linecap="round" stroke-linejoin="round" d="M291.608 66.847C295.085,67.131 297.480,67.646 302.039,67.698 310.697,67.797 326.699,65.803 339.719,65.484 353.706,65.142 368.407,66.101 383.275,65.910 398.885,65.709 415.264,64.775 431.259,64.207 "/>
	<path fill="none" stroke="#000000" stroke-width="2.00" stroke-linecap="round" stroke-linejoin="round" d="M430.875 63.952C431.344,92.647 430.898,122.963 432.281,150.039 433.519,174.302 436.348,214.458 438.199,218.926 438.428,219.478 438.653,219.465 438.880,219.735 "/>
	<path fill="none" stroke="#000000" stroke-width="2.00" stroke-linecap="round" stroke-linejoin="round" d="M278.622 218.841C278.622,218.841 278.622,218.841 278.622,218.841 284.895,219.948 289.948,221.386 297.441,222.162 308.351,223.290 322.120,223.298 337.931,223.439 360.275,223.638 403.990,223.640 418.826,222.332 424.508,221.831 427.761,221.433 430.535,220.416 432.237,219.792 433.089,218.883 434.367,218.117 "/>
	<path fill="none" stroke="#000000" stroke-width="2.00" stroke-linecap="round" stroke-linejoin="round" d="M284.957 30.532C284.716,29.865 284.414,28.512 284.233,28.531 284.025,28.553 283.760,30.255 283.850,31.341 283.980,32.905 284.451,35.524 285.596,36.961 286.752,38.414 289.263,40.319 290.790,39.984 292.512,39.606 294.484,35.754 295.175,33.725 295.714,32.144 295.715,30.398 295.388,29.085 295.114,27.984 294.081,26.560 293.728,26.275 293.626,26.193 293.541,26.147 293.472,26.190 293.307,26.292 293.330,27.211 293.259,27.722 "/>
	<path fill="none" stroke="#000000" stroke-width="2.00" stroke-linecap="round" stroke-linejoin="round" d="M303.861 27.254C302.285,27.495 300.234,27.348 299.135,27.978 298.319,28.445 297.394,29.185 297.474,30.021 297.638,31.730 305.747,35.296 305.905,37.089 305.988,38.043 304.825,38.965 303.903,39.473 302.804,40.079 300.176,40.625 299.518,40.069 299.010,39.640 299.099,38.187 299.433,37.429 299.797,36.603 301.022,36.067 301.817,35.386 "/>
	<path fill="none" stroke="#000000" stroke-width="2.00" stroke-linecap="round" stroke-linejoin="round" d="M309.438 31.895C309.438,32.959 309.221,34.053 309.438,35.088 309.662,36.155 309.952,37.530 310.801,38.196 311.800,38.980 314.122,39.357 315.442,39.005 316.656,38.680 317.485,37.302 318.507,36.450 "/>
	<path fill="none" stroke="#000000" stroke-width="2.00" stroke-linecap="round" stroke-linejoin="round" d="M309.225 29.809C309.240,29.383 309.000,28.898 309.268,28.531 309.754,27.867 312.009,27.506 313.228,27.126 314.250,26.808 315.212,26.334 316.080,26.360 316.822,26.382 317.443,26.814 318.124,27.041 "/>
	<path fill="none" stroke="#000000" stroke-width="2.00" stroke-linecap="round" stroke-linejoin="round" d="M309.822 32.533C310.148,32.817 310.297,33.271 310.801,33.385 311.861,33.625 314.491,32.363 316.336,31.852 "/>
	<path fill="none" stroke="#000000" stroke-width="2.00" stroke-linecap="round" stroke-linejoin="round" d="M322.126 31.426C322.552,34.392 323.265,40.337 323.403,40.325 323.520,40.314 322.584,35.928 323.148,34.023 323.710,32.126 325.921,28.910 326.767,28.914 327.229,28.917 327.715,29.699 327.831,30.447 328.076,32.010 324.541,36.855 325.447,38.238 326.271,39.496 330.355,39.006 332.132,39.005 333.309,39.004 334.247,38.735 335.069,38.664 335.662,38.613 336.091,38.607 336.602,38.579 "/>
	<path fill="none" stroke="#000000" stroke-width="2.00" stroke-linecap="round" stroke-linejoin="round" d="M348.907 30.788C348.893,30.546 348.847,30.066 348.864,30.064 348.913,30.059 349.514,34.593 349.801,36.152 349.981,37.133 350.138,38.040 350.312,38.536 350.396,38.777 350.482,38.877 350.567,39.047 "/>
	<path fill="none" stroke="#000000" stroke-width="2.00" stroke-linecap="round" stroke-linejoin="round" d="M354.655 30.532C354.569,30.532 354.471,30.459 354.399,30.532 353.938,31.005 354.789,41.040 354.655,41.048 354.520,41.057 352.730,30.936 353.590,30.575 354.307,30.273 356.617,34.994 358.274,36.195 359.538,37.111 361.511,38.220 362.233,37.770 362.970,37.311 362.852,34.563 362.574,33.342 362.353,32.372 361.260,31.366 361.169,30.915 361.137,30.758 361.126,30.669 361.211,30.575 361.391,30.376 362.205,30.348 362.702,30.234 "/>
	<path fill="none" stroke="#000000" stroke-width="2.00" stroke-linecap="round" stroke-linejoin="round" d="M368.535 29.553C368.492,31.881 368.269,35.215 368.407,36.535 368.463,37.068 368.522,37.617 368.662,37.642 368.788,37.665 369.003,37.131 369.173,36.876 "/>
	<path fill="none" stroke="#000000" stroke-width="2.00" stroke-linecap="round" stroke-linejoin="round" d="M363.894 29.638C363.879,29.468 363.724,29.265 363.851,29.127 364.397,28.537 371.469,27.656 373.303,29.170 375.047,30.609 373.630,36.089 374.964,37.557 375.876,38.562 377.625,38.825 378.795,38.707 379.864,38.599 380.754,37.657 381.733,37.131 "/>
	<path fill="none" stroke="#000000" stroke-width="2.00" stroke-linecap="round" stroke-linejoin="round" d="M374.027 28.872C374.027,28.787 373.959,28.702 374.027,28.616 374.330,28.235 377.699,27.698 379.008,27.467 379.848,27.319 380.696,27.187 381.095,27.211 381.258,27.221 381.322,27.268 381.435,27.297 "/>
	<path fill="none" stroke="#000000" stroke-width="2.00" stroke-linecap="round" stroke-linejoin="round" d="M373.218 32.320C373.232,32.377 373.203,32.444 373.260,32.491 373.485,32.672 374.977,32.677 375.900,32.576 376.952,32.460 378.114,32.008 379.221,31.724 "/>
	<path fill="none" stroke="#000000" stroke-width="2.00" stroke-linecap="round" stroke-linejoin="round" d="M384.245 30.149C384.387,32.831 384.775,38.186 384.671,38.196 384.576,38.205 383.345,33.488 383.777,31.597 384.155,29.941 385.537,27.613 386.587,27.339 387.375,27.133 388.886,27.861 389.142,28.659 389.553,29.944 385.164,33.950 385.735,35.301 386.221,36.449 389.196,36.825 390.887,36.876 392.501,36.925 394.066,36.110 395.656,35.726 "/>
	<path fill="none" stroke="#000000" stroke-width="2.00" stroke-linecap="round" stroke-linejoin="round" d="M398.210 28.957C398.182,28.971 398.149,28.959 398.125,29.000 397.926,29.346 398.318,34.269 398.551,35.769 398.669,36.532 398.784,37.073 398.977,37.472 399.098,37.724 399.260,37.841 399.402,38.026 "/>
	<path fill="none" stroke="#000000" stroke-width="2.00" stroke-linecap="round" stroke-linejoin="round" d="M397.742 27.041C397.728,26.984 397.667,26.915 397.699,26.871 397.783,26.756 398.323,26.806 398.892,26.786 400.315,26.735 405.532,25.973 406.385,26.786 406.797,27.178 406.723,28.120 406.470,28.531 406.216,28.945 405.392,29.014 404.852,29.255 "/>
	<path fill="none" stroke="#000000" stroke-width="2.00" stroke-linecap="round" stroke-linejoin="round" d="M398.636 32.235C398.636,32.250 398.623,32.265 398.636,32.278 398.737,32.379 400.292,32.302 401.361,32.278 402.891,32.243 405.079,32.108 406.939,32.022 "/>
	<path fill="none" stroke="#000000" stroke-width="2.00" stroke-linecap="round" stroke-linejoin="round" d="M406.768 37.217C406.726,37.188 406.670,37.180 406.640,37.131 406.594,37.054 406.568,36.956 406.598,36.748 406.756,35.633 409.549,26.449 410.855,26.488 412.142,26.526 413.518,34.830 414.389,36.663 414.736,37.392 414.998,37.736 415.283,38.111 415.488,38.379 415.681,38.536 415.880,38.749 "/>
	<path fill="none" stroke="#000000" stroke-width="2.00" stroke-linecap="round" stroke-linejoin="round" d="M408.131 34.109C408.102,34.023 407.999,33.934 408.046,33.853 408.205,33.574 410.094,33.365 411.196,33.172 412.397,32.961 413.722,32.831 414.985,32.661 "/>
	<path fill="none" stroke="#000000" stroke-width="2.00" stroke-linecap="round" stroke-linejoin="round" d="M427.375 30.575C426.864,29.596 426.578,27.991 425.842,27.637 425.212,27.334 424.127,27.608 423.458,28.105 422.570,28.766 421.546,30.571 421.457,31.895 421.365,33.263 421.992,35.163 423.032,36.195 424.207,37.359 426.844,38.122 428.525,38.153 429.936,38.180 431.136,37.330 432.442,36.919 "/>
	<path fill="none" stroke="#000000" stroke-width="2.00" stroke-linecap="round" stroke-linejoin="round" d="M436.785 28.787C436.472,28.730 436.104,28.450 435.848,28.616 435.351,28.939 434.879,30.982 434.996,32.108 435.115,33.239 435.701,34.629 436.572,35.386 437.507,36.199 439.407,36.787 440.574,36.663 441.559,36.558 442.305,35.670 443.171,35.173 "/>
	<path fill="none" stroke="#000000" stroke-width="2.00" stroke-linecap="round" stroke-linejoin="round" d="M437.466 26.871C437.409,26.786 437.342,26.718 437.296,26.615 437.237,26.487 437.089,26.279 437.168,26.147 437.338,25.862 438.584,25.654 439.382,25.636 440.309,25.615 441.397,26.005 442.405,26.190 "/>
	<path fill="none" stroke="#000000" stroke-width="2.00" stroke-linecap="round" stroke-linejoin="round" d="M437.253 29.936C437.239,29.993 437.176,30.059 437.210,30.107 437.330,30.273 438.619,30.344 439.339,30.277 440.107,30.205 440.900,29.851 441.681,29.638 "/>
	<path fill="none" stroke="#000000" stroke-width="2.00" stroke-linecap="round" stroke-linejoin="round" d="M301.162 80.841C301.505,80.232 301.515,79.293 302.191,79.014 303.535,78.459 306.509,80.815 310.170,81.261 317.786,82.188 338.061,80.084 346.015,80.106 349.985,80.117 351.965,80.330 354.940,80.442 "/>
	<path fill="none" stroke="#000000" stroke-width="2.00" stroke-linecap="round" stroke-linejoin="round" d="M300.238 102.910C299.986,102.021 299.239,101.040 299.482,100.243 299.764,99.322 300.786,98.503 302.317,97.849 305.961,96.293 317.283,95.310 323.211,95.624 327.668,95.860 331.303,98.081 334.823,98.122 337.746,98.157 340.556,96.535 342.866,96.589 344.629,96.631 345.908,97.300 347.506,97.702 349.225,98.135 351.062,98.640 352.840,99.109 "/>
	<path fill="none" stroke="#000000" stroke-width="2.00" stroke-linecap="round" stroke-linejoin="round" d="M306.811 119.310C306.713,119.149 306.462,118.978 306.517,118.827 306.632,118.505 307.718,118.233 308.911,117.987 312.073,117.334 321.463,116.662 326.718,116.748 330.901,116.816 334.475,118.274 337.973,117.903 341.158,117.564 343.923,115.971 346.897,115.005 "/>
	<path fill="none" stroke="#000000" stroke-width="2.00" stroke-linecap="round" stroke-linejoin="round" d="M355.108 101.545C355.514,100.908 355.396,100.182 356.326,99.634 360.078,97.422 380.895,98.108 393.179,97.345 "/>
	<path fill="none" stroke="#000000" stroke-width="2.00" stroke-linecap="round" stroke-linejoin="round" d="M398.933 97.450C403.230,98.115 407.528,98.780 411.826,99.445 "/>
	<path fill="none" stroke="#000000" stroke-width="2.00" stroke-linecap="round" stroke-linejoin="round" d="M357.649 117.231C357.621,116.930 357.400,116.572 357.565,116.328 357.844,115.913 358.910,115.661 360.064,115.572 362.524,115.383 367.851,117.220 371.823,117.231 375.898,117.242 380.437,115.519 384.212,115.551 387.398,115.578 390.089,116.847 393.011,116.895 395.898,116.942 399.456,116.293 401.641,115.866 403.012,115.598 403.839,115.264 404.938,114.963 "/>
	<path fill="none" stroke="#000000" stroke-width="2.00" stroke-linecap="round" stroke-linejoin="round" d="M301.021 134.768C300.892,134.139 300.694,132.872 300.635,132.879 300.528,132.893 300.912,139.193 301.000,139.195 301.032,139.196 301.055,138.681 301.082,138.424 "/>
	<path fill="none" stroke="#000000" stroke-width="2.00" stroke-linecap="round" stroke-linejoin="round" d="M301.122 133.590C301.122,133.577 301.110,133.564 301.122,133.550 301.252,133.401 304.723,132.231 305.651,132.961 306.805,133.867 306.583,139.126 306.423,139.967 306.385,140.165 306.349,140.236 306.240,140.312 306.095,140.415 305.780,140.380 305.550,140.414 "/>
	<path fill="none" stroke="#000000" stroke-width="2.00" stroke-linecap="round" stroke-linejoin="round" d="M300.391 141.308C300.391,141.267 300.366,141.220 300.391,141.186 300.437,141.123 300.586,141.109 300.777,141.064 301.287,140.944 302.783,140.721 303.641,140.617 304.334,140.533 304.879,140.531 305.529,140.455 306.230,140.372 306.978,140.238 307.702,140.130 "/>
	<path fill="none" stroke="#000000" stroke-width="2.00" stroke-linecap="round" stroke-linejoin="round" d="M318.994 131.742C318.994,131.742 318.994,131.742 318.994,131.742 318.947,131.769 318.901,131.752 318.852,131.823 318.512,132.321 317.669,139.786 317.654,139.784 317.651,139.784 317.673,139.623 317.695,139.439 317.781,138.698 317.741,135.174 318.345,133.854 318.758,132.949 319.539,131.836 320.132,131.905 320.942,131.998 322.028,134.724 322.549,136.210 323.040,137.613 323.450,139.964 323.259,140.556 323.200,140.741 323.050,140.863 322.955,140.861 322.868,140.859 322.792,140.685 322.711,140.597 "/>
	<path fill="none" stroke="#000000" stroke-width="2.00" stroke-linecap="round" stroke-linejoin="round" d="M319.177 137.165C319.177,137.137 319.155,137.109 319.177,137.083 319.275,136.967 320.161,136.897 320.782,136.799 321.635,136.664 322.813,136.515 323.828,136.373 "/>
	<path fill="none" stroke="#000000" stroke-width="2.00" stroke-linecap="round" stroke-linejoin="round" d="M330.530 136.596C330.442,136.264 330.533,135.791 330.266,135.601 329.830,135.290 328.175,135.310 327.524,135.804 326.786,136.365 326.055,138.411 326.326,139.135 326.530,139.678 327.466,140.240 328.073,140.109 329.058,139.897 330.171,137.280 331.221,135.865 "/>
	<path fill="none" stroke="#000000" stroke-width="2.00" stroke-linecap="round" stroke-linejoin="round" d="M331.139 132.189C331.119,132.087 331.092,131.883 331.078,131.884 331.017,131.891 330.724,136.507 331.261,137.936 331.619,138.888 332.399,139.317 332.967,140.008 "/>
	<path fill="none" stroke="#000000" stroke-width="2.00" stroke-linecap="round" stroke-linejoin="round" d="M336.460 137.855C336.278,137.117 336.251,135.707 335.912,135.641 335.513,135.564 334.074,137.463 334.064,138.200 334.056,138.752 334.689,139.637 335.059,139.663 335.444,139.689 335.912,138.715 336.339,138.241 "/>
	<path fill="none" stroke="#000000" stroke-width="2.00" stroke-linecap="round" stroke-linejoin="round" d="M337.963 132.067C337.943,132.081 337.919,132.073 337.902,132.108 337.735,132.461 338.453,138.412 338.654,139.784 338.728,140.292 338.759,140.476 338.857,140.820 338.959,141.180 339.128,141.538 339.263,141.896 "/>
	<path fill="none" stroke="#000000" stroke-width="2.00" stroke-linecap="round" stroke-linejoin="round" d="M351.042 135.804C350.135,135.729 348.623,135.145 348.321,135.580 347.902,136.184 350.902,139.456 350.555,140.333 350.330,140.901 348.819,141.380 348.504,141.145 348.179,140.903 348.639,139.588 348.707,138.810 "/>
	<path fill="none" stroke="#000000" stroke-width="2.00" stroke-linecap="round" stroke-linejoin="round" d="M353.033 136.129C353.385,137.313 353.677,139.662 354.089,139.683 354.502,139.704 354.958,136.275 355.511,136.230 356.041,136.187 356.695,139.147 357.318,139.155 357.959,139.163 358.800,136.037 359.308,136.109 359.813,136.180 360.142,139.049 360.364,139.541 360.430,139.685 360.473,139.717 360.527,139.805 "/>
	<path fill="none" stroke="#000000" stroke-width="2.00" stroke-linecap="round" stroke-linejoin="round" d="M362.517 137.043C362.470,136.968 362.404,136.809 362.375,136.819 362.289,136.849 362.234,138.729 362.619,139.195 362.941,139.586 363.751,139.864 364.223,139.683 364.857,139.440 366.016,137.607 365.787,137.104 365.569,136.624 363.352,136.344 363.086,136.637 362.907,136.833 363.302,137.435 363.411,137.835 "/>
	<path fill="none" stroke="#000000" stroke-width="2.00" stroke-linecap="round" stroke-linejoin="round" d="M367.838 137.754C367.838,137.598 367.877,137.294 367.838,137.286 367.767,137.272 367.064,138.420 367.229,138.769 367.420,139.173 368.700,139.600 369.280,139.399 369.942,139.169 371.002,137.457 370.864,137.104 370.785,136.901 370.254,136.852 369.971,136.901 369.677,136.951 369.416,137.253 369.138,137.429 "/>
	<path fill="none" stroke="#000000" stroke-width="2.00" stroke-linecap="round" stroke-linejoin="round" d="M373.545 132.087C373.525,132.121 373.498,132.125 373.484,132.189 373.383,132.652 373.938,137.017 374.154,138.322 374.258,138.943 374.362,139.303 374.459,139.683 374.529,139.959 374.620,140.247 374.662,140.394 374.681,140.459 374.712,140.531 374.703,140.536 374.681,140.546 374.418,140.103 374.276,139.886 "/>
	<path fill="none" stroke="#000000" stroke-width="2.00" stroke-linecap="round" stroke-linejoin="round" d="M372.509 136.149C372.557,136.136 372.570,136.125 372.652,136.109 373.091,136.020 375.823,135.830 376.937,135.601 377.669,135.450 378.128,135.249 378.724,135.073 "/>
	<path fill="none" stroke="#000000" stroke-width="2.00" stroke-linecap="round" stroke-linejoin="round" d="M378.318 132.818C378.297,133.563 378.160,134.196 378.257,135.052 378.392,136.254 378.766,139.212 379.354,139.317 379.916,139.418 380.988,135.972 381.649,136.007 382.230,136.037 382.703,138.151 383.151,138.749 383.405,139.087 383.625,139.223 383.862,139.459 "/>
	<path fill="none" stroke="#000000" stroke-width="2.00" stroke-linecap="round" stroke-linejoin="round" d="M388.696 132.351C389.075,134.172 389.530,136.808 389.833,137.814 389.953,138.213 389.965,138.447 390.158,138.627 390.351,138.806 390.713,138.803 390.991,138.891 "/>
	<path fill="none" stroke="#000000" stroke-width="2.00" stroke-linecap="round" stroke-linejoin="round" d="M393.814 135.113C394.051,136.115 394.176,137.517 394.525,138.119 394.715,138.448 394.971,138.539 395.195,138.749 "/>
	<path fill="none" stroke="#000000" stroke-width="2.00" stroke-linecap="round" stroke-linejoin="round" d="M394.098 132.047C393.983,132.054 393.826,131.988 393.753,132.067 393.616,132.215 393.766,132.866 393.773,133.265 "/>
	<path fill="none" stroke="#000000" stroke-width="2.00" stroke-linecap="round" stroke-linejoin="round" d="M397.632 134.260C397.903,135.601 397.889,138.139 398.444,138.282 398.962,138.414 400.167,135.481 400.739,135.560 401.221,135.627 401.403,137.241 401.775,137.855 402.057,138.321 402.371,138.613 402.669,138.992 "/>
	<path fill="none" stroke="#000000" stroke-width="2.00" stroke-linecap="round" stroke-linejoin="round" d="M404.903 134.687C405.289,135.046 405.611,135.721 406.060,135.763 406.588,135.813 407.964,134.768 407.908,134.606 407.850,134.433 405.834,134.376 405.451,134.849 405.024,135.377 405.292,137.362 405.796,137.896 406.208,138.331 407.198,138.270 407.807,138.241 408.325,138.216 408.755,137.984 409.229,137.855 "/>
	<path fill="none" stroke="#000000" stroke-width="2.00" stroke-linecap="round" stroke-linejoin="round" d="M412.234 137.814C412.248,137.835 412.264,137.845 412.275,137.875 412.300,137.944 412.302,138.119 412.316,138.241 "/>
	<path fill="none" stroke="#66B032" stroke-width="2.00" stroke-linecap="round" stroke-linejoin="round" d="M302.570 134.825C302.489,134.896 302.342,134.910 302.328,135.037 302.271,135.558 304.622,139.565 305.564,139.452 306.625,139.325 307.109,134.843 308.226,133.041 309.193,131.479 310.806,130.030 311.643,129.109 312.111,128.594 312.412,128.336 312.762,127.930 313.107,127.529 313.407,127.103 313.730,126.690 "/>
	<path fill="none" stroke="#000000" stroke-width="2.00" stroke-linecap="round" stroke-linejoin="round" d="M312.188 170.572C312.450,169.362 312.740,166.932 312.974,166.943 313.288,166.958 313.494,170.601 313.760,173.626 314.318,179.974 315.599,203.190 315.484,203.204 315.472,203.205 315.444,203.034 315.424,202.871 315.368,202.439 315.303,201.279 315.242,200.482 "/>
	<path fill="none" stroke="#000000" stroke-width="2.00" stroke-linecap="round" stroke-linejoin="round" d="M313.972 163.707C313.932,163.132 314.061,162.069 313.851,161.983 313.680,161.914 313.343,162.302 313.004,162.739 312.025,164.001 308.874,171.242 308.649,171.147 308.431,171.054 310.127,162.920 311.462,162.679 312.676,162.459 314.767,167.043 316.089,168.425 316.935,169.309 317.601,169.755 318.357,170.421 "/>
	<path fill="none" stroke="#000000" stroke-width="2.00" stroke-linecap="round" stroke-linejoin="round" d="M314.668 202.992C315.262,202.871 315.652,202.740 316.452,202.629 318.047,202.408 320.133,202.257 323.680,202.085 333.522,201.608 378.450,203.898 379.480,200.875 379.823,199.867 374.551,197.103 374.641,196.974 374.738,196.834 380.827,199.399 380.992,200.724 381.124,201.785 378.604,203.294 377.635,204.051 377.007,204.541 376.506,204.736 375.941,205.079 "/>
	<path fill="none" stroke="#000000" stroke-width="2.00" stroke-linecap="round" stroke-linejoin="round" d="M324.618 173.052C324.537,173.032 324.409,172.952 324.376,172.991 324.294,173.087 324.759,173.879 324.950,174.322 "/>
	<path fill="none" stroke="#000000" stroke-width="2.00" stroke-linecap="round" stroke-linejoin="round" d="M327.309 182.669C327.239,182.709 327.138,182.716 327.098,182.790 327.033,182.907 327.118,183.193 327.128,183.395 "/>
	<path fill="none" stroke="#000000" stroke-width="2.00" stroke-linecap="round" stroke-linejoin="round" d="M328.368 189.776C328.328,189.867 328.236,189.939 328.247,190.048 328.267,190.242 328.610,190.552 328.791,190.804 "/>
	<path fill="none" stroke="#000000" stroke-width="2.00" stroke-linecap="round" stroke-linejoin="round" d="M338.620 180.098C338.550,180.038 338.493,179.978 338.409,179.917 338.300,179.838 338.147,179.756 338.016,179.675 "/>
	<path fill="none" stroke="#000000" stroke-width="2.00" stroke-linecap="round" stroke-linejoin="round" d="M333.902 174.504C333.751,174.393 333.601,174.247 333.449,174.171 333.319,174.105 333.092,174.023 333.056,174.050 333.042,174.060 333.056,174.090 333.056,174.110 "/>
	<path fill="none" stroke="#000000" stroke-width="2.00" stroke-linecap="round" stroke-linejoin="round" d="M335.384 186.601C335.354,186.621 335.299,186.624 335.294,186.661 335.275,186.797 335.919,187.387 336.231,187.750 "/>
	<path fill="none" stroke="#000000" stroke-width="2.00" stroke-linecap="round" stroke-linejoin="round" d="M342.975 193.436C343.560,193.385 344.145,193.335 344.730,193.284 "/>
	<path fill="none" stroke="#000000" stroke-width="2.00" stroke-linecap="round" stroke-linejoin="round" d="M356.283 191.530C356.283,191.550 356.268,191.572 356.283,191.591 356.328,191.647 356.646,191.671 356.827,191.712 "/>
	<path fill="none" stroke="#000000" stroke-width="2.00" stroke-linecap="round" stroke-linejoin="round" d="M362.452 189.625C362.382,189.605 362.308,189.624 362.241,189.564 362.096,189.436 361.979,188.939 361.848,188.627 "/>
	<path fill="none" stroke="#000000" stroke-width="2.00" stroke-linecap="round" stroke-linejoin="round" d="M362.936 178.768C362.704,178.586 362.483,178.345 362.241,178.223 362.027,178.116 361.797,178.102 361.575,178.042 "/>
	<path fill="none" stroke="#000000" stroke-width="2.00" stroke-linecap="round" stroke-linejoin="round" d="M351.232 178.284C351.172,178.254 351.118,178.225 351.051,178.193 350.969,178.155 350.869,178.113 350.778,178.072 "/>
	<path fill="none" stroke="#000000" stroke-width="2.00" stroke-linecap="round" stroke-linejoin="round" d="M348.903 183.879C349.387,184.060 349.871,184.242 350.355,184.423 "/>
	<path fill="none" stroke="#000000" stroke-width="2.00" stroke-linecap="round" stroke-linejoin="round" d="M360.759 189.837C361.777,189.816 362.795,189.796 363.813,189.776 "/>
	<path fill="none" stroke="#000000" stroke-width="2.00" stroke-linecap="round" stroke-linejoin="round" d="M368.441 193.829C368.844,194.141 369.503,194.370 369.650,194.766 369.791,195.144 369.347,196.119 369.378,196.127 369.413,196.137 369.761,194.998 369.953,194.434 "/>
	<path fill="none" stroke="#000000" stroke-width="2.00" stroke-linecap="round" stroke-linejoin="round" d="M371.798 185.149C371.727,184.978 371.690,184.805 371.586,184.635 371.462,184.432 371.243,184.232 371.072,184.030 "/>
	<path fill="none" stroke="#000000" stroke-width="2.00" stroke-linecap="round" stroke-linejoin="round" d="M359.851 183.365C359.730,183.294 359.507,183.134 359.489,183.153 359.475,183.167 359.569,183.274 359.609,183.334 "/>
	<path fill="none" stroke="#000000" stroke-width="2.00" stroke-linecap="round" stroke-linejoin="round" d="M352.049 191.016C352.008,191.036 351.944,191.035 351.928,191.077 351.894,191.164 352.069,191.439 352.139,191.621 "/>
	<path fill="none" stroke="#000000" stroke-width="2.00" stroke-linecap="round" stroke-linejoin="round" d="M348.177 197.911C348.772,197.861 349.367,197.811 349.962,197.760 "/>
	<path fill="none" stroke="#0392CE" stroke-width="2.00" stroke-linecap="round" stroke-linejoin="round" d="M323.680 175.229C323.710,175.189 323.704,175.132 323.771,175.108 324.119,174.986 325.829,175.571 327.793,176.137 333.353,177.738 349.920,182.891 359.458,186.298 367.488,189.167 380.375,194.497 381.385,194.948 381.461,194.982 381.466,194.988 381.506,195.008 "/>
	<path fill="none" stroke="#000000" stroke-width="2.00" stroke-linecap="round" stroke-linejoin="round" d="M42.948 135.093C42.837,134.750 42.651,134.056 42.616,134.065 42.531,134.086 42.622,139.513 43.674,140.234 44.497,140.798 46.174,139.730 47.424,139.478 "/>
	<path fill="none" stroke="#000000" stroke-width="2.00" stroke-linecap="round" stroke-linejoin="round" d="M44.975 130.557C44.349,129.589 42.867,127.978 43.099,127.653 43.306,127.364 44.874,128.097 45.761,128.319 "/>
	<path fill="none" stroke="#000000" stroke-width="2.00" stroke-linecap="round" stroke-linejoin="round" d="M53.201 130.768C53.433,130.728 53.684,130.809 53.896,130.647 54.269,130.365 54.888,129.326 54.834,128.682 54.777,127.994 54.041,127.039 53.412,126.655 52.816,126.292 51.674,126.022 51.205,126.353 50.677,126.725 50.693,127.768 50.630,129.105 50.466,132.603 53.304,147.773 52.777,148.219 52.721,148.266 52.636,148.178 52.566,148.158 "/>
	<path fill="none" stroke="#000000" stroke-width="2.00" stroke-linecap="round" stroke-linejoin="round" d="M48.725 141.323C48.876,141.242 48.936,141.170 49.178,141.081 49.944,140.800 52.844,140.219 54.199,139.992 55.108,139.840 55.731,139.811 56.497,139.720 "/>
	<path fill="none" stroke="#000000" stroke-width="2.00" stroke-linecap="round" stroke-linejoin="round" d="M70.954 134.156C70.924,134.156 70.890,134.129 70.863,134.156 70.662,134.358 70.685,138.487 70.893,139.357 70.968,139.671 71.100,139.885 71.196,139.962 71.237,139.995 71.276,139.982 71.317,139.992 "/>
	<path fill="none" stroke="#000000" stroke-width="2.00" stroke-linecap="round" stroke-linejoin="round" d="M69.502 129.468C69.341,129.246 69.133,128.777 69.018,128.803 68.887,128.831 68.760,129.442 68.806,129.861 68.881,130.530 69.552,131.535 69.926,132.371 "/>
	<path fill="none" stroke="#000000" stroke-width="2.00" stroke-linecap="round" stroke-linejoin="round" d="M73.948 133.641C74.361,135.345 74.629,138.701 75.188,138.753 75.734,138.803 76.513,134.229 77.244,134.156 77.821,134.098 78.503,136.124 79.059,136.696 79.411,137.058 79.724,137.200 80.057,137.452 "/>
	<path fill="none" stroke="#000000" stroke-width="2.00" stroke-linecap="round" stroke-linejoin="round" d="M81.781 133.702C81.751,133.742 81.711,133.749 81.690,133.823 81.601,134.145 81.807,135.412 81.993,136.696 82.376,139.352 84.404,148.806 84.231,148.854 84.173,148.870 83.926,148.195 83.747,147.553 83.281,145.881 81.643,140.682 81.993,138.299 82.232,136.671 83.252,134.485 84.019,134.398 84.703,134.320 86.334,136.243 86.287,137.059 86.243,137.828 84.431,139.250 84.019,139.176 83.808,139.138 83.666,138.697 83.656,138.450 83.646,138.203 83.858,137.946 83.959,137.694 "/>
	<path fill="none" stroke="#000000" stroke-width="2.00" stroke-linecap="round" stroke-linejoin="round" d="M87.346 135.517C87.366,135.517 87.382,135.502 87.406,135.517 87.527,135.591 87.834,136.328 88.072,136.847 88.395,137.554 88.529,139.153 89.130,139.388 89.746,139.628 91.219,138.837 91.761,138.178 92.286,137.540 92.255,135.537 92.396,135.547 92.520,135.555 92.205,137.097 92.608,137.573 93.114,138.169 94.744,138.737 95.693,138.420 96.925,138.008 98.546,135.698 98.990,134.156 99.400,132.727 98.583,129.555 98.536,129.559 98.479,129.563 98.137,134.996 98.838,136.545 99.292,137.547 100.415,138.409 100.955,138.571 101.215,138.649 101.399,138.490 101.621,138.450 "/>
	<path fill="none" stroke="#000000" stroke-width="2.00" stroke-linecap="round" stroke-linejoin="round" d="M96.631 133.883C96.621,133.863 96.589,133.841 96.600,133.823 96.676,133.697 98.808,133.772 99.897,133.762 100.965,133.753 102.014,133.762 103.072,133.762 "/>
	<path fill="none" stroke="#000000" stroke-width="2.00" stroke-linecap="round" stroke-linejoin="round" d="M114.642 129.280C113.617,129.217 112.511,128.794 111.565,129.092 110.554,129.410 108.753,130.541 108.806,131.285 108.874,132.238 113.144,133.049 113.805,134.209 114.245,134.980 114.252,136.049 113.794,136.767 113.132,137.803 110.303,138.883 108.971,139.031 108.088,139.129 107.040,138.944 106.684,138.524 106.401,138.191 106.629,137.542 106.601,137.050 "/>
	<path fill="none" stroke="#000000" stroke-width="2.00" stroke-linecap="round" stroke-linejoin="round" d="M109.254 126.121C109.407,127.854 109.514,129.296 109.714,131.320 109.995,134.168 110.620,140.105 110.834,141.590 110.894,142.003 110.903,142.359 110.976,142.380 111.009,142.389 111.054,142.293 111.093,142.250 "/>
	<path fill="none" stroke="#000000" stroke-width="2.00" stroke-linecap="round" stroke-linejoin="round" d="M113.074 126.097C112.992,126.832 112.870,127.249 112.827,128.302 112.718,130.932 113.014,139.962 113.228,142.144 113.294,142.825 113.344,143.136 113.452,143.476 113.523,143.703 113.625,143.838 113.711,144.018 "/>
	<path fill="none" stroke="#000000" stroke-width="2.00" stroke-linecap="round" stroke-linejoin="round" d="M121.234 133.619C120.385,134.004 118.819,134.179 118.687,134.775 118.528,135.489 121.447,137.206 121.304,137.828 121.209,138.245 120.080,138.463 119.654,138.548 119.402,138.598 119.136,138.643 119.029,138.536 118.918,138.425 119.021,138.096 119.017,137.876 "/>
	<path fill="none" stroke="#000000" stroke-width="2.00" stroke-linecap="round" stroke-linejoin="round" d="M124.099 134.008C124.303,135.620 124.611,138.844 124.712,138.842 124.751,138.842 124.714,138.444 124.783,138.100 124.949,137.258 125.704,133.829 126.079,133.843 126.449,133.857 126.503,137.968 127.023,138.052 127.524,138.134 128.628,134.547 129.098,134.621 129.520,134.689 129.717,137.108 129.829,137.769 129.880,138.069 129.806,138.261 129.900,138.430 129.984,138.581 130.183,138.650 130.324,138.760 "/>
	<path fill="none" stroke="#000000" stroke-width="2.00" stroke-linecap="round" stroke-linejoin="round" d="M132.010 135.329C132.517,136.437 132.740,138.444 133.531,138.654 134.419,138.889 137.344,136.687 137.269,135.966 137.200,135.310 134.830,134.310 133.791,134.433 132.832,134.546 131.363,135.739 131.220,136.390 131.123,136.835 131.692,137.278 131.928,137.722 "/>
	<path fill="none" stroke="#000000" stroke-width="2.00" stroke-linecap="round" stroke-linejoin="round" d="M140.488 135.529C140.256,135.439 139.953,135.159 139.792,135.258 139.517,135.428 139.216,137.068 139.592,137.439 140.090,137.932 143.039,137.671 143.424,137.038 143.772,136.466 142.932,134.503 142.268,134.091 141.699,133.737 140.450,134.007 139.945,134.291 139.595,134.489 139.306,134.882 139.285,135.199 139.264,135.519 139.647,135.867 139.827,136.201 "/>
	<path fill="none" stroke="#000000" stroke-width="2.00" stroke-linecap="round" stroke-linejoin="round" d="M146.430 129.646C146.426,129.673 146.422,129.681 146.419,129.728 146.401,129.997 146.378,131.349 146.454,132.440 146.570,134.119 146.986,137.935 147.256,138.807 147.330,139.048 147.432,139.155 147.480,139.243 147.501,139.282 147.525,139.327 147.527,139.326 147.531,139.324 147.299,138.854 147.185,138.618 "/>
	<path fill="none" stroke="#000000" stroke-width="2.00" stroke-linecap="round" stroke-linejoin="round" d="M144.261 134.185C144.261,134.091 144.191,133.984 144.261,133.902 144.471,133.657 146.044,133.595 146.784,133.513 147.360,133.449 147.775,133.468 148.329,133.407 148.979,133.336 149.736,133.195 150.439,133.089 "/>
	<path fill="none" stroke="#000000" stroke-width="2.00" stroke-linecap="round" stroke-linejoin="round" d="M151.147 129.351C151.080,129.273 150.989,129.096 150.946,129.115 150.708,129.224 151.802,138.376 152.396,138.418 152.835,138.449 153.318,133.538 153.894,133.513 154.485,133.488 155.079,137.751 155.910,138.536 156.356,138.956 156.846,139.052 157.384,139.031 158.055,139.005 158.870,138.402 159.612,138.088 "/>
	<path fill="none" stroke="#000000" stroke-width="2.00" stroke-linecap="round" stroke-linejoin="round" d="M163.751 133.666C163.908,133.651 163.997,133.633 164.222,133.619 164.786,133.584 166.448,133.533 167.194,133.549 167.645,133.558 167.917,133.596 168.279,133.619 "/>
	<path fill="none" stroke="#000000" stroke-width="2.00" stroke-linecap="round" stroke-linejoin="round" d="M163.562 136.296C163.621,136.296 163.642,136.297 163.739,136.296 164.183,136.289 166.386,136.189 167.465,136.178 168.292,136.169 168.927,136.193 169.658,136.201 "/>
	<path fill="none" stroke="#000000" stroke-width="2.00" stroke-linecap="round" stroke-linejoin="round" d="M171.662 133.171C171.674,133.163 171.675,133.154 171.698,133.148 171.891,133.092 174.095,133.050 174.657,133.242 174.916,133.330 174.995,133.486 175.164,133.607 "/>
	<path fill="none" stroke="#000000" stroke-width="2.00" stroke-linecap="round" stroke-linejoin="round" d="M171.627 136.013C171.635,136.048 171.614,136.087 171.651,136.119 171.840,136.284 173.679,136.367 174.528,136.355 175.203,136.345 175.738,136.221 176.343,136.154 "/>
	<path fill="none" stroke="#000000" stroke-width="2.00" stroke-linecap="round" stroke-linejoin="round" d="M180.753 128.620C180.722,128.510 180.674,128.287 180.659,128.290 180.622,128.297 180.761,129.739 180.824,130.247 180.864,130.574 180.888,130.788 180.954,131.049 181.018,131.307 181.126,131.552 181.213,131.804 "/>
	<path fill="none" stroke="#000000" stroke-width="2.00" stroke-linecap="round" stroke-linejoin="round" d="M184.043 130.636C184.019,130.361 183.873,129.848 183.972,129.811 184.211,129.722 186.009,133.765 186.837,133.737 187.527,133.714 188.550,130.837 188.641,130.884 188.746,130.938 187.149,133.750 186.931,135.011 186.761,136.002 186.859,137.181 187.073,137.769 187.191,138.094 187.411,138.218 187.580,138.442 "/>
	<path fill="none" stroke="#000000" stroke-width="2.00" stroke-linecap="round" stroke-linejoin="round" d="M190.728 134.374C190.728,134.468 190.661,134.608 190.728,134.657 190.924,134.801 193.034,134.158 193.039,133.926 193.043,133.741 192.051,133.285 191.601,133.395 191.055,133.529 190.273,134.426 190.091,135.058 189.918,135.663 190.062,136.653 190.457,137.086 190.858,137.525 191.825,137.463 192.508,137.652 "/>
	<path fill="none" stroke="#000000" stroke-width="2.00" stroke-linecap="round" stroke-linejoin="round" d="M196.234 133.159C196.627,134.417 197.721,136.076 197.413,136.932 197.178,137.587 195.948,138.211 195.480,138.194 195.201,138.184 195.047,137.864 194.831,137.699 "/>
	<path fill="none" stroke="#000000" stroke-width="2.00" stroke-linecap="round" stroke-linejoin="round" d="M199.760 127.842C199.736,128.011 199.687,128.147 199.689,128.349 199.691,128.652 199.790,129.081 199.866,129.481 199.953,129.938 200.086,130.455 200.196,130.943 "/>
	<path fill="none" stroke="#000000" stroke-width="2.00" stroke-linecap="round" stroke-linejoin="round" d="M63.585 124.791C63.473,124.437 63.401,123.727 63.249,123.730 62.830,123.740 61.432,129.425 61.077,131.928 60.786,133.978 60.689,135.657 60.948,137.617 61.236,139.804 62.275,142.151 62.939,144.418 "/>
	<path fill="none" stroke="#000000" stroke-width="2.00" stroke-linecap="round" stroke-linejoin="round" d="M201.884 118.895C202.651,119.722 203.588,120.238 204.186,121.377 205.048,123.021 205.907,125.629 205.712,128.256 205.436,131.968 202.350,137.013 200.669,141.392 "/>
	<path fill="none" stroke="#000000" stroke-width="2.00" stroke-linecap="round" stroke-linejoin="round" d="M64.510 152.929C64.450,152.878 64.384,152.751 64.329,152.774 64.050,152.892 63.929,157.715 63.941,159.006 63.947,159.589 63.993,160.022 64.045,160.273 64.067,160.384 64.097,160.429 64.122,160.506 "/>
	<path fill="none" stroke="#000000" stroke-width="2.00" stroke-linecap="round" stroke-linejoin="round" d="M61.821 157.791C61.838,157.713 61.801,157.608 61.873,157.558 62.083,157.412 63.187,157.827 63.916,157.843 64.750,157.860 65.688,157.719 66.605,157.584 67.581,157.441 68.605,157.188 69.605,156.989 "/>
	<path fill="none" stroke="#000000" stroke-width="2.00" stroke-linecap="round" stroke-linejoin="round" d="M81.087 157.713C81.112,156.920 81.528,155.711 81.164,155.334 80.835,154.995 79.778,154.948 79.225,155.334 78.258,156.009 76.640,159.978 77.182,160.894 77.584,161.575 79.567,161.808 80.414,161.385 81.374,160.906 81.968,157.594 82.405,157.687 82.988,157.812 82.523,162.699 82.948,165.109 83.367,167.481 84.209,170.878 84.914,172.039 85.207,172.522 85.517,172.608 85.819,172.893 "/>
	<path fill="none" stroke="#000000" stroke-width="2.00" stroke-linecap="round" stroke-linejoin="round" d="M88.095 159.498C88.758,159.799 89.545,160.583 90.086,160.403 90.704,160.197 91.652,158.453 91.456,157.894 91.288,157.412 90.129,156.973 89.491,157.067 88.771,157.173 87.806,158.015 87.396,158.799 86.935,159.683 86.682,161.407 87.112,162.239 87.509,163.007 88.636,163.681 89.646,163.739 91.044,163.818 93.077,162.204 94.792,161.437 "/>
	<path fill="none" stroke="#000000" stroke-width="2.00" stroke-linecap="round" stroke-linejoin="round" d="M96.111 158.644C96.008,158.696 95.841,158.681 95.801,158.799 95.674,159.176 96.551,161.676 97.352,161.954 98.184,162.243 100.602,161.073 100.766,160.325 100.926,159.592 99.299,157.777 98.439,157.532 97.744,157.335 96.534,157.896 96.189,158.282 95.979,158.517 96.068,158.851 96.008,159.136 "/>
	<path fill="none" stroke="#000000" stroke-width="2.00" stroke-linecap="round" stroke-linejoin="round" d="M102.162 156.214C102.154,156.351 102.117,156.418 102.137,156.627 102.201,157.330 103.035,161.117 103.274,161.153 103.335,161.162 103.357,161.036 103.430,160.894 103.713,160.338 104.644,156.645 105.240,156.653 105.860,156.662 106.378,161.276 107.076,161.308 107.809,161.341 108.891,156.309 109.558,156.369 110.212,156.427 110.837,160.582 111.058,161.463 111.135,161.767 111.144,161.877 111.188,162.084 "/>
	<path fill="none" stroke="#000000" stroke-width="2.00" stroke-linecap="round" stroke-linejoin="round" d="M115.661 161.023C115.713,161.066 115.723,161.109 115.816,161.153 116.164,161.314 117.785,161.631 118.583,161.644 119.189,161.654 119.652,161.489 120.187,161.411 "/>
	<path fill="none" stroke="#000000" stroke-width="2.00" stroke-linecap="round" stroke-linejoin="round" d="M129.781 156.446C129.384,155.938 129.113,155.076 128.591,154.921 128.030,154.753 126.979,155.208 126.471,155.645 125.996,156.052 125.549,156.678 125.566,157.377 125.592,158.485 128.348,160.708 128.048,161.618 127.810,162.340 125.575,163.102 125.204,162.833 124.921,162.629 125.307,161.644 125.359,161.049 "/>
	<path fill="none" stroke="#000000" stroke-width="2.00" stroke-linecap="round" stroke-linejoin="round" d="M131.850 156.317C131.850,156.326 131.847,156.327 131.850,156.343 131.886,156.597 132.953,162.641 133.686,162.678 134.451,162.717 135.727,155.953 136.375,156.007 136.923,156.052 136.753,160.844 137.487,161.023 138.215,161.202 139.826,157.058 140.745,157.144 141.595,157.224 142.225,159.989 142.866,160.920 143.281,161.523 143.642,161.851 144.030,162.316 "/>
	<path fill="none" stroke="#000000" stroke-width="2.00" stroke-linecap="round" stroke-linejoin="round" d="M149.357 155.929C149.314,157.610 148.500,160.345 149.227,160.972 149.826,161.487 152.244,160.999 152.589,160.377 152.929,159.763 152.029,157.832 151.348,157.300 150.788,156.862 149.560,156.751 149.124,156.989 148.818,157.157 148.814,157.662 148.659,157.998 "/>
	<path fill="none" stroke="#000000" stroke-width="2.00" stroke-linecap="round" stroke-linejoin="round" d="M156.235 157.429C156.029,157.463 155.782,157.366 155.615,157.532 155.247,157.899 154.680,159.885 155.098,160.558 155.544,161.278 157.576,161.745 158.459,161.566 159.145,161.428 159.900,160.773 160.089,160.222 160.267,159.701 160.079,158.856 159.675,158.386 159.159,157.786 157.606,157.296 156.830,157.274 156.302,157.259 155.934,157.567 155.486,157.713 "/>
	<path fill="none" stroke="#000000" stroke-width="2.00" stroke-linecap="round" stroke-linejoin="round" d="M163.347 150.990C163.330,151.326 163.289,151.500 163.295,151.998 163.314,153.435 163.998,158.657 163.942,160.351 163.917,161.096 163.787,161.420 163.709,161.954 "/>
	<path fill="none" stroke="#000000" stroke-width="2.00" stroke-linecap="round" stroke-linejoin="round" d="M161.614 155.412C161.683,155.412 161.706,155.410 161.821,155.412 162.404,155.419 165.989,155.975 167.122,155.541 167.792,155.285 168.320,154.814 168.467,154.274 168.634,153.659 168.081,152.172 167.795,151.973 167.684,151.895 167.523,151.892 167.433,151.998 166.999,152.513 167.460,160.182 168.260,160.377 168.895,160.532 170.426,155.813 171.157,155.929 171.927,156.052 171.914,161.054 172.682,161.644 173.027,161.908 173.475,161.644 173.872,161.644 "/>
	<path fill="none" stroke="#000000" stroke-width="2.00" stroke-linecap="round" stroke-linejoin="round" d="M181.449 149.438C180.690,150.378 179.644,151.066 179.173,152.257 178.586,153.744 178.456,156.247 178.759,157.894 179.018,159.294 179.703,160.960 180.492,161.592 181.050,162.039 181.820,161.885 182.483,162.032 "/>
	<path fill="none" stroke="#000000" stroke-width="2.00" stroke-linecap="round" stroke-linejoin="round" d="M189.259 150.033C190.146,153.395 192.288,157.410 191.922,160.118 191.652,162.122 190.009,163.411 189.052,165.057 "/>
	<path fill="none" stroke="#000000" stroke-width="2.00" stroke-linecap="round" stroke-linejoin="round" d="M31.005 74.147C30.600,82.315 30.248,87.790 29.790,98.651 28.884,120.177 26.910,170.120 26.451,194.972 26.161,210.655 25.407,233.005 26.364,233.353 26.491,233.399 26.688,233.068 26.798,232.833 26.959,232.488 26.971,231.879 27.058,231.401 "/>
	<path fill="none" stroke="#000000" stroke-width="2.00" stroke-linecap="round" stroke-linejoin="round" d="M30.007 76.186C29.848,75.969 29.459,75.675 29.530,75.535 29.658,75.282 30.730,75.510 32.176,75.535 38.740,75.647 72.713,77.739 86.735,77.400 95.552,77.187 99.105,75.885 108.246,75.622 124.243,75.161 153.425,77.779 174.341,77.270 193.284,76.808 222.562,73.746 228.423,73.280 229.562,73.189 230.437,73.037 230.462,73.106 230.468,73.126 230.375,73.164 230.332,73.193 "/>
	<path fill="none" stroke="#000000" stroke-width="2.00" stroke-linecap="round" stroke-linejoin="round" d="M230.028 72.673C230.375,75.145 230.870,76.637 231.069,80.089 231.521,87.954 230.933,103.125 230.115,118.947 228.826,143.865 223.700,193.198 222.525,215.052 221.918,226.341 221.488,238.564 221.788,240.769 221.833,241.103 221.907,241.293 221.961,241.333 221.976,241.344 221.990,241.333 222.005,241.333 "/>
	<path fill="none" stroke="#000000" stroke-width="2.00" stroke-linecap="round" stroke-linejoin="round" d="M25.714 236.692C25.627,236.664 25.449,236.627 25.453,236.606 25.469,236.517 27.576,236.725 30.181,236.736 42.561,236.788 104.649,234.411 137.043,234.697 164.068,234.936 203.977,237.985 211.379,237.430 212.692,237.331 212.911,237.141 213.678,236.996 "/>
	<path fill="none" stroke="#000000" stroke-width="2.00" stroke-linecap="round" stroke-linejoin="round" d="M45.056 102.684C45.013,102.626 44.908,102.535 44.926,102.510 44.976,102.443 45.967,102.886 46.488,103.074 "/>
	<path fill="none" stroke="#000000" stroke-width="2.00" stroke-linecap="round" stroke-linejoin="round" d="M52.863 101.426C52.863,101.368 52.832,101.266 52.863,101.253 52.948,101.215 53.499,101.831 53.817,102.120 "/>
	<path fill="none" stroke="#000000" stroke-width="2.00" stroke-linecap="round" stroke-linejoin="round" d="M62.057 102.077C62.202,102.048 62.333,102.005 62.491,101.990 62.676,101.972 62.896,101.990 63.098,101.990 "/>
	<path fill="none" stroke="#000000" stroke-width="2.00" stroke-linecap="round" stroke-linejoin="round" d="M40.242 203.732C40.199,203.573 40.031,203.350 40.112,203.255 40.283,203.057 41.558,203.429 42.281,203.516 "/>
	<path fill="none" stroke="#000000" stroke-width="2.00" stroke-linecap="round" stroke-linejoin="round" d="M51.822 203.212C51.822,203.212 51.822,203.212 51.822,203.212 51.938,203.226 52.031,203.228 52.169,203.255 52.378,203.297 52.689,203.400 52.950,203.472 "/>
	<path fill="none" stroke="#000000" stroke-width="2.00" stroke-linecap="round" stroke-linejoin="round" d="M62.144 202.475C62.144,202.475 62.144,202.475 62.144,202.475 62.260,202.475 62.340,202.494 62.491,202.475 62.788,202.436 63.358,202.243 63.792,202.128 "/>
	<path fill="none" stroke="#66B032" stroke-width="2.00" stroke-linecap="round" stroke-linejoin="round" d="M292.827 140.544C292.813,140.660 292.855,140.872 292.784,140.891 292.453,140.983 290.277,136.730 288.100,134.907 285.177,132.458 280.031,130.151 276.000,128.488 272.282,126.955 268.394,125.781 264.854,125.105 261.756,124.514 259.716,124.201 255.963,124.368 249.383,124.661 236.264,125.996 228.944,129.052 223.074,131.502 215.639,140.166 214.588,139.287 213.686,138.532 220.062,127.499 220.140,127.534 220.221,127.571 213.194,138.743 214.502,140.761 215.567,142.406 224.043,140.930 224.043,140.935 224.043,140.935 223.989,140.923 223.956,140.935 223.897,140.956 223.812,141.050 223.739,141.108 "/>
	<path fill="none" stroke="#0392CE" stroke-width="2.00" stroke-linecap="round" stroke-linejoin="round" d="M207.866 171.206C207.779,171.264 207.612,171.271 207.606,171.379 207.564,172.079 213.510,177.281 217.451,179.793 222.202,182.821 228.908,185.526 234.582,187.599 239.876,189.534 245.483,191.051 250.368,192.023 254.481,192.841 257.401,193.278 261.905,193.411 268.227,193.597 278.046,193.679 284.760,192.023 290.494,190.609 299.704,187.323 299.983,185.171 300.148,183.896 295.383,181.547 295.429,181.484 295.477,181.420 300.090,183.459 300.547,184.997 301.002,186.528 298.304,190.178 298.205,190.678 298.191,190.751 298.205,190.765 298.205,190.809 298.205,190.809 298.205,190.809 298.205,190.809 "/>
</g>
</svg>
